<?xml version="1.0" encoding="utf-8"?>
<!-- Generator: Adobe Illustrator 16.0.0, SVG Export Plug-In . SVG Version: 6.00 Build 0)  -->
<!DOCTYPE svg PUBLIC "-//W3C//DTD SVG 1.1//EN" "http://www.w3.org/Graphics/SVG/1.1/DTD/svg11.dtd">
<svg version="1.1" id="Layer_1" xmlns="http://www.w3.org/2000/svg" xmlns:xlink="http://www.w3.org/1999/xlink" x="0px" y="0px"
	 width="71.531px" height="71.531px" viewBox="0 0 71.531 71.531" enable-background="new 0 0 71.531 71.531" xml:space="preserve">
<path opacity="0.6" fill="#CECECE" enable-background="new    " d="M35.766,3.505c-17.816,0-32.261,14.443-32.261,32.261
	c0,17.818,14.445,32.261,32.261,32.261c17.818,0,32.26-14.442,32.262-32.261C68.027,17.947,53.584,3.505,35.766,3.505z
	 M35.688,64.688L15.622,44.62l8.088-8.086l12.037,12.039l12.137-12.135l8.025,8.03L35.688,64.688z M35.688,39.446L15.622,19.38
	l8.088-8.088l12.037,12.041l12.137-12.135l8.025,8.028L35.688,39.446z"/>
<g id="Layer_1_1_">
</g>
<polygon opacity="0.6" fill="#231F20" enable-background="new    " points="35.688,64.688 15.622,44.619 23.71,36.533 
	35.747,48.572 47.884,36.438 55.909,44.468 "/>
<polygon opacity="0.6" fill="#231F20" enable-background="new    " points="35.688,39.445 15.622,19.379 23.71,11.291 
	35.747,23.332 47.884,11.197 55.909,19.226 "/>
<path opacity="0.6" fill="#231F20" enable-background="new    " d="M35.766,0C16.014,0,0,16.012,0,35.766
	C0,55.52,16.014,71.532,35.766,71.532c19.753,0,35.766-16.013,35.766-35.766C71.532,16.012,55.52,0,35.766,0z M35.766,68.025
	c-17.816,0-32.261-14.442-32.261-32.26S17.949,3.504,35.766,3.504c17.818,0,32.261,14.442,32.261,32.261
	C68.025,53.583,53.584,68.025,35.766,68.025z"/>
</svg>
