<?xml version="1.0" encoding="utf-8"?>
<!-- Generator: Adobe Illustrator 16.0.0, SVG Export Plug-In . SVG Version: 6.00 Build 0)  -->
<!DOCTYPE svg PUBLIC "-//W3C//DTD SVG 1.1//EN" "http://www.w3.org/Graphics/SVG/1.1/DTD/svg11.dtd">
<svg version="1.1" xmlns="http://www.w3.org/2000/svg" xmlns:xlink="http://www.w3.org/1999/xlink" x="0px" y="0px"
	 width="71.531px" height="71.531px" viewBox="0 0 71.531 71.531" enable-background="new 0 0 71.531 71.531" xml:space="preserve">
<g id="Layer_1">
</g>
<g id="Layer_3">
	<g>
		<path opacity="0.6" fill="#231F20" enable-background="new    " d="M35.688,64.688L15.622,44.619l8.088-8.086l12.037,12.039
			l12.137-12.135l8.025,8.031L35.688,64.688z M35.688,39.445L15.622,19.379l8.088-8.088l12.037,12.041l12.137-12.135l8.025,8.029
			L35.688,39.445z"/>
		<path opacity="0.6" fill="#231F20" enable-background="new    " d="M35.766,0C16.014,0,0,16.012,0,35.766
			s16.014,35.766,35.766,35.766c19.754,0,35.766-16.012,35.766-35.766S55.52,0,35.766,0z M35.766,68.026
			c-17.816,0-32.261-14.443-32.261-32.261c0-17.818,14.444-32.261,32.261-32.261c17.818,0,32.261,14.442,32.261,32.261
			C68.026,53.583,53.584,68.026,35.766,68.026z"/>
		<path opacity="0.8" fill="#CECECE" enable-background="new    " d="M35.766,3.505c-17.816,0-32.261,14.442-32.261,32.261
			c0,17.817,14.444,32.261,32.261,32.261c17.818,0,32.261-14.443,32.261-32.261C68.026,17.947,53.584,3.505,35.766,3.505z
			 M35.688,64.688L15.621,44.619l8.088-8.086l12.037,12.039l12.137-12.135l8.025,8.031L35.688,64.688z M35.688,39.445L15.621,19.379
			l8.088-8.088l12.037,12.041l12.137-12.135l8.025,8.029L35.688,39.445z"/>
	</g>
</g>
</svg>
