<?xml version="1.0" encoding="utf-8"?>
<!-- Generator: Adobe Illustrator 16.0.0, SVG Export Plug-In . SVG Version: 6.00 Build 0)  -->
<!DOCTYPE svg PUBLIC "-//W3C//DTD SVG 1.1//EN" "http://www.w3.org/Graphics/SVG/1.1/DTD/svg11.dtd">
<svg version="1.1" id="Layer_1" xmlns="http://www.w3.org/2000/svg" xmlns:xlink="http://www.w3.org/1999/xlink" x="0px" y="0px"
	 width="324.124px" height="41.414px" viewBox="0 0 324.124 41.414" enable-background="new 0 0 324.124 41.414"
	 xml:space="preserve">
<g>
	<g>
		<g>
			<polygon fill="#FF7E00" points="115.202,4.293 115.202,6.892 110.805,6.892 110.805,18.979 107.716,18.979 107.716,6.892 
				103.303,6.892 103.303,4.293 			"/>
			<path fill="#FF7E00" d="M155.691,25.853c0.037,0.002,0.122,0.009,0.251,0.016v2.908c-0.18-0.02-0.35-0.033-0.49-0.04
				c-0.143-0.003-0.261-0.009-0.348-0.009c-1.18,0-1.971,0.372-2.373,1.115c-0.227,0.414-0.338,1.066-0.338,1.938v5.189h-2.945
				V26.104h2.792v1.895c0.45-0.723,0.844-1.219,1.181-1.485c0.545-0.445,1.256-0.669,2.133-0.669
				C155.608,25.844,155.659,25.849,155.691,25.853"/>
			<path fill="#FF7E00" d="M124.369,8.177c0.548,0.234,0.995,0.591,1.344,1.067c0.298,0.407,0.479,0.825,0.546,1.253
				c0.069,0.43,0.098,1.129,0.098,2.102v6.38h-2.896v-6.614c0-0.582-0.099-1.057-0.296-1.414c-0.261-0.506-0.747-0.763-1.468-0.763
				c-0.742,0-1.309,0.257-1.692,0.759c-0.388,0.5-0.581,1.219-0.581,2.148v5.884h-2.839V4.339h2.839v5.184
				c0.412-0.633,0.884-1.072,1.426-1.32c0.539-0.249,1.104-0.375,1.701-0.375C123.214,7.827,123.821,7.944,124.369,8.177"/>
			<path fill="#FF7E00" d="M135.489,8.337c0.76,0.342,1.387,0.875,1.879,1.607c0.445,0.646,0.732,1.395,0.867,2.245
				c0.074,0.499,0.105,1.216,0.093,2.157h-7.914c0.044,1.09,0.425,1.851,1.14,2.291c0.432,0.273,0.953,0.409,1.565,0.409
				c0.646,0,1.171-0.168,1.572-0.499c0.222-0.178,0.419-0.43,0.587-0.746h2.898c-0.076,0.645-0.426,1.296-1.053,1.963
				c-0.972,1.054-2.332,1.583-4.086,1.583c-1.445,0-2.717-0.446-3.824-1.335c-1.106-0.894-1.658-2.344-1.658-4.351
				c0-1.878,0.502-3.325,1.494-4.329c0.998-1.002,2.295-1.506,3.886-1.506C133.878,7.827,134.73,7.998,135.489,8.337
				 M131.243,10.793c-0.404,0.411-0.656,0.971-0.758,1.68h4.891c-0.051-0.753-0.301-1.327-0.754-1.715
				c-0.455-0.394-1.016-0.585-1.687-0.585C132.205,10.173,131.644,10.377,131.243,10.793"/>
			<path fill="#FF7E00" d="M126.971,26.728c0.731,0.59,1.098,1.566,1.098,2.924v7.318h-2.995V30.36c0-0.57-0.08-1.008-0.234-1.314
				c-0.284-0.557-0.828-0.839-1.631-0.839c-0.984,0-1.662,0.411-2.025,1.226c-0.193,0.434-0.291,0.984-0.291,1.658v5.879h-2.923
				V26.124h2.835v1.586c0.376-0.556,0.73-0.96,1.062-1.206c0.598-0.437,1.357-0.66,2.277-0.66
				C125.298,25.844,126.237,26.145,126.971,26.728"/>
			<polygon fill="#FF7E00" points="115.351,24.881 107.349,24.881 107.349,27.998 114.696,27.998 114.696,30.552 107.349,30.552 
				107.349,34.326 115.724,34.326 115.724,36.97 104.258,36.97 104.258,22.28 115.351,22.28 			"/>
			<path fill="#FF7E00" d="M155.8,5.861c0.449,0.622,0.672,1.366,0.672,2.235c0,0.902-0.225,1.621-0.678,2.165
				c-0.256,0.308-0.627,0.583-1.122,0.835c0.751,0.271,1.316,0.703,1.698,1.297c0.381,0.592,0.57,1.311,0.57,2.151
				c0,0.868-0.215,1.652-0.654,2.341c-0.272,0.46-0.623,0.844-1.039,1.152c-0.467,0.363-1.02,0.611-1.66,0.744
				c-0.635,0.127-1.325,0.196-2.075,0.196h-6.618V4.293h7.099C153.786,4.316,155.052,4.839,155.8,5.861 M147.821,6.841v3.238h3.574
				c0.633,0,1.152-0.117,1.55-0.361c0.401-0.244,0.6-0.672,0.6-1.291c0-0.684-0.267-1.135-0.79-1.356
				c-0.453-0.151-1.031-0.229-1.734-0.229H147.821z M147.821,12.515v3.912h3.57c0.635,0,1.132-0.084,1.488-0.259
				c0.643-0.318,0.961-0.929,0.961-1.836c0-0.758-0.311-1.286-0.932-1.573c-0.35-0.16-0.84-0.239-1.471-0.244H147.821z"/>
			<path fill="#FF7E00" d="M175.536,17.649c-0.916,1.133-2.307,1.698-4.174,1.698s-3.26-0.565-4.176-1.698
				c-0.919-1.131-1.377-2.493-1.377-4.085c0-1.566,0.458-2.923,1.377-4.075c0.916-1.146,2.309-1.719,4.176-1.719
				s3.258,0.573,4.174,1.719c0.918,1.152,1.375,2.509,1.375,4.075C176.911,15.156,176.454,16.519,175.536,17.649 M173.263,16.082
				c0.447-0.591,0.67-1.429,0.67-2.518c0-1.091-0.223-1.927-0.67-2.515c-0.443-0.586-1.082-0.877-1.91-0.877
				c-0.832,0-1.47,0.291-1.918,0.877c-0.449,0.588-0.674,1.424-0.674,2.515c0,1.089,0.225,1.927,0.674,2.518
				c0.448,0.589,1.086,0.883,1.918,0.883C172.181,16.965,172.819,16.671,173.263,16.082"/>
			<path fill="#FF7E00" d="M164.979,7.861c0.032,0.007,0.117,0.011,0.241,0.019v2.908c-0.179-0.019-0.335-0.035-0.476-0.037
				c-0.143-0.01-0.254-0.012-0.34-0.012c-1.142,0-1.91,0.372-2.301,1.113c-0.219,0.422-0.328,1.062-0.328,1.934v5.192h-2.859V8.116
				h2.707v1.896c0.439-0.726,0.823-1.222,1.146-1.485c0.536-0.443,1.222-0.667,2.073-0.667
				C164.899,7.859,164.942,7.86,164.979,7.861"/>
			<path fill="#FF7E00" d="M216.368,12.372c0.529-0.065,0.908-0.145,1.135-0.248c0.406-0.174,0.611-0.443,0.611-0.809
				c0-0.443-0.152-0.75-0.468-0.922c-0.31-0.167-0.772-0.254-1.377-0.254c-0.682,0-1.161,0.169-1.448,0.498
				c-0.198,0.246-0.338,0.578-0.398,0.996h-2.743c0.06-0.949,0.327-1.729,0.8-2.344c0.75-0.953,2.047-1.431,3.885-1.431
				c1.193,0,2.25,0.235,3.181,0.705c0.927,0.472,1.39,1.363,1.39,2.675v4.982c0,0.344,0.006,0.761,0.02,1.256
				c0.023,0.367,0.078,0.62,0.17,0.753c0.092,0.137,0.234,0.246,0.418,0.328v0.42h-3.087c-0.087-0.217-0.149-0.425-0.176-0.618
				c-0.04-0.191-0.064-0.412-0.083-0.654c-0.393,0.424-0.847,0.787-1.365,1.08c-0.616,0.354-1.309,0.533-2.086,0.533
				c-0.984,0-1.805-0.281-2.447-0.843c-0.646-0.562-0.968-1.358-0.968-2.39c0-1.335,0.519-2.301,1.558-2.9
				c0.563-0.322,1.401-0.555,2.508-0.695L216.368,12.372z M218.108,13.698c-0.186,0.113-0.369,0.205-0.551,0.276
				c-0.188,0.064-0.444,0.134-0.766,0.192l-0.645,0.121c-0.609,0.105-1.043,0.23-1.305,0.386c-0.449,0.257-0.672,0.663-0.672,1.206
				c0,0.486,0.134,0.835,0.41,1.055c0.273,0.213,0.604,0.318,0.994,0.318c0.617,0,1.197-0.174,1.717-0.538
				c0.525-0.358,0.797-1.007,0.816-1.963V13.698z"/>
			<path fill="#FF7E00" d="M257.601,5.861c0.445,0.622,0.672,1.366,0.672,2.235c0,0.902-0.227,1.621-0.68,2.165
				c-0.254,0.308-0.629,0.583-1.121,0.835c0.75,0.271,1.316,0.703,1.697,1.297c0.383,0.592,0.574,1.311,0.574,2.151
				c0,0.868-0.217,1.652-0.658,2.341c-0.275,0.46-0.625,0.844-1.035,1.152c-0.473,0.363-1.026,0.611-1.662,0.744
				c-0.639,0.127-1.33,0.196-2.074,0.196h-6.617V4.293h7.098C255.585,4.316,256.851,4.839,257.601,5.861 M249.623,6.841v3.238h3.571
				c0.639,0,1.154-0.117,1.555-0.361c0.395-0.244,0.592-0.672,0.592-1.291c0-0.684-0.263-1.135-0.785-1.356
				c-0.453-0.151-1.035-0.229-1.734-0.229H249.623z M249.623,12.515v3.912h3.568c0.634,0,1.13-0.084,1.487-0.259
				c0.642-0.318,0.963-0.929,0.963-1.836c0-0.758-0.311-1.286-0.936-1.573c-0.346-0.16-0.834-0.239-1.469-0.244H249.623z"/>
			<path fill="#FF7E00" d="M182.837,12.372c0.529-0.065,0.908-0.145,1.134-0.248c0.409-0.174,0.614-0.443,0.614-0.809
				c0-0.443-0.156-0.75-0.469-0.922c-0.316-0.167-0.777-0.254-1.38-0.254c-0.682,0-1.161,0.169-1.444,0.498
				c-0.205,0.246-0.339,0.578-0.406,0.996h-2.738c0.061-0.949,0.326-1.729,0.799-2.344c0.754-0.953,2.047-1.431,3.887-1.431
				c1.189,0,2.25,0.235,3.18,0.705c0.928,0.472,1.393,1.363,1.393,2.675v4.982c0,0.344,0.006,0.761,0.018,1.256
				c0.02,0.367,0.078,0.62,0.172,0.753c0.088,0.137,0.229,0.246,0.42,0.328v0.42h-3.093c-0.087-0.217-0.147-0.425-0.181-0.618
				c-0.027-0.191-0.059-0.412-0.076-0.654c-0.396,0.424-0.852,0.787-1.365,1.08c-0.615,0.354-1.309,0.533-2.084,0.533
				c-0.99,0-1.809-0.281-2.451-0.843s-0.967-1.358-0.967-2.39c0-1.335,0.52-2.301,1.555-2.9c0.57-0.322,1.406-0.555,2.515-0.695
				L182.837,12.372z M184.573,13.698c-0.18,0.113-0.365,0.205-0.551,0.276c-0.188,0.064-0.439,0.134-0.764,0.192l-0.648,0.121
				c-0.604,0.105-1.04,0.23-1.297,0.386c-0.451,0.257-0.676,0.663-0.676,1.206c0,0.486,0.137,0.835,0.413,1.055
				c0.272,0.213,0.606,0.318,0.993,0.318c0.621,0,1.192-0.174,1.714-0.538c0.524-0.358,0.795-1.007,0.815-1.963V13.698z"/>
			<path fill="#FF7E00" d="M207.622,12.016c-0.053-0.403-0.186-0.774-0.41-1.097c-0.313-0.438-0.816-0.657-1.491-0.657
				c-0.955,0-1.608,0.473-1.964,1.423c-0.186,0.505-0.275,1.175-0.275,2.008c0,0.796,0.09,1.438,0.275,1.92
				c0.344,0.903,0.979,1.353,1.918,1.353c0.664,0,1.138-0.177,1.422-0.538c0.277-0.358,0.445-0.82,0.507-1.393h2.898
				c-0.066,0.859-0.38,1.678-0.935,2.449c-0.895,1.24-2.213,1.864-3.961,1.864s-3.037-0.52-3.863-1.556
				c-0.823-1.035-1.232-2.379-1.232-4.03c0-1.862,0.453-3.314,1.365-4.351c0.912-1.032,2.166-1.552,3.77-1.552
				c1.361,0,2.48,0.306,3.344,0.919c0.871,0.609,1.383,1.689,1.543,3.237H207.622z"/>
			<path fill="#FF7E00" d="M195.235,8.292c0.512,0.289,0.926,0.692,1.246,1.201V4.311h2.879v14.668h-2.762v-1.501
				c-0.404,0.643-0.863,1.107-1.385,1.402c-0.518,0.295-1.158,0.439-1.93,0.439c-1.27,0-2.34-0.516-3.203-1.542
				c-0.869-1.024-1.305-2.341-1.305-3.95c0-1.852,0.43-3.309,1.279-4.373c0.857-1.061,2-1.595,3.429-1.595
				C194.14,7.859,194.724,8.003,195.235,8.292 M195.933,16.029c0.419-0.6,0.631-1.372,0.631-2.323c0-1.33-0.34-2.278-1.01-2.848
				c-0.411-0.348-0.887-0.52-1.434-0.52c-0.828,0-1.438,0.314-1.828,0.941c-0.391,0.629-0.58,1.408-0.58,2.338
				c0,1.003,0.195,1.807,0.589,2.406c0.396,0.602,0.999,0.901,1.802,0.901C194.902,16.926,195.513,16.628,195.933,16.029"/>
			<path fill="#FF7E00" d="M225.212,15.513c0.059,0.504,0.188,0.863,0.389,1.072c0.357,0.38,1.01,0.568,1.965,0.568
				c0.561,0,1.006-0.082,1.338-0.25c0.326-0.163,0.493-0.41,0.493-0.741c0-0.322-0.132-0.565-0.401-0.732
				c-0.264-0.165-1.254-0.448-2.967-0.856c-1.236-0.303-2.107-0.687-2.61-1.144c-0.506-0.453-0.757-1.103-0.757-1.955
				c0-1.004,0.393-1.864,1.178-2.585c0.795-0.721,1.902-1.078,3.336-1.078c1.358,0,2.467,0.271,3.32,0.81
				c0.855,0.544,1.342,1.478,1.471,2.807h-2.84c-0.037-0.368-0.143-0.657-0.309-0.867c-0.313-0.388-0.846-0.579-1.601-0.579
				c-0.618,0-1.062,0.095-1.323,0.289c-0.26,0.193-0.393,0.419-0.393,0.68c0,0.324,0.141,0.56,0.417,0.705
				c0.283,0.152,1.27,0.414,2.966,0.785c1.133,0.268,1.98,0.667,2.549,1.204c0.553,0.546,0.836,1.23,0.836,2.046
				c0,1.078-0.404,1.951-1.209,2.633c-0.801,0.689-2.04,1.024-3.713,1.024c-1.713,0-2.979-0.358-3.791-1.081
				c-0.815-0.721-1.225-1.639-1.225-2.754H225.212z"/>
			<path fill="#FF7E00" d="M129.64,28.229v-2.024h1.562v-3.029h2.891v3.029h1.819v2.024h-1.819v5.737
				c0,0.445,0.059,0.727,0.174,0.832c0.119,0.111,0.474,0.166,1.07,0.166c0.084,0,0.181,0,0.28-0.005
				c0.099-0.003,0.198-0.003,0.295-0.013v2.119l-1.388,0.051c-1.379,0.049-2.326-0.187-2.834-0.697
				c-0.326-0.321-0.488-0.828-0.488-1.503v-6.688H129.64z"/>
			<path fill="#FF7E00" d="M287.567,8.741c0.713,0.588,1.068,1.564,1.068,2.926v7.312h-2.91v-6.606c0-0.572-0.074-1.009-0.229-1.312
				c-0.273-0.562-0.803-0.837-1.58-0.837c-0.955,0-1.609,0.407-1.965,1.224c-0.189,0.431-0.281,0.98-0.281,1.654v5.878h-2.84V8.14
				h2.75v1.584c0.365-0.559,0.705-0.962,1.029-1.207c0.584-0.439,1.32-0.657,2.215-0.657C285.948,7.859,286.858,8.151,287.567,8.741
				"/>
			<path fill="#FF7E00" d="M319.624,8.292c0.514,0.289,0.93,0.692,1.248,1.201V4.311h2.881v14.668h-2.76v-1.501
				c-0.406,0.643-0.871,1.107-1.391,1.402c-0.514,0.295-1.16,0.439-1.932,0.439c-1.266,0-2.332-0.516-3.201-1.542
				c-0.867-1.024-1.299-2.341-1.299-3.95c0-1.852,0.426-3.309,1.275-4.373c0.857-1.061,1.996-1.595,3.428-1.595
				C318.53,7.859,319.114,8.003,319.624,8.292 M320.325,16.029c0.414-0.6,0.631-1.372,0.631-2.323c0-1.33-0.34-2.278-1.014-2.848
				c-0.412-0.348-0.889-0.52-1.434-0.52c-0.826,0-1.439,0.314-1.826,0.941c-0.391,0.629-0.582,1.408-0.582,2.338
				c0,1.003,0.195,1.807,0.594,2.406c0.393,0.602,0.992,0.901,1.797,0.901C319.294,16.926,319.905,16.628,320.325,16.029"/>
			<path fill="#FF7E00" d="M232.833,10.243V8.216h1.514V5.191h2.811v3.024h1.763v2.027h-1.763v5.736
				c0,0.443,0.059,0.724,0.172,0.832c0.109,0.109,0.455,0.166,1.035,0.166c0.083,0,0.174-0.004,0.274-0.007
				c0.097-0.002,0.19-0.011,0.281-0.017v2.123l-1.339,0.051c-1.347,0.047-2.266-0.182-2.754-0.697
				c-0.322-0.324-0.48-0.825-0.48-1.505v-6.683H232.833z"/>
			<path fill="#FF7E00" d="M309.442,8.337c0.754,0.342,1.377,0.875,1.873,1.607c0.447,0.646,0.734,1.395,0.865,2.245
				c0.078,0.499,0.107,1.216,0.092,2.157h-7.908c0.047,1.09,0.422,1.851,1.135,2.291c0.436,0.273,0.959,0.409,1.566,0.409
				c0.646,0,1.176-0.168,1.578-0.499c0.223-0.178,0.414-0.43,0.586-0.746h2.9c-0.078,0.645-0.432,1.296-1.059,1.963
				c-0.969,1.054-2.332,1.583-4.084,1.583c-1.441,0-2.721-0.446-3.824-1.335c-1.105-0.894-1.658-2.344-1.658-4.351
				c0-1.878,0.5-3.325,1.498-4.329c0.996-1.002,2.291-1.506,3.885-1.506C307.833,7.827,308.685,7.998,309.442,8.337 M305.192,10.793
				c-0.404,0.411-0.654,0.971-0.758,1.68h4.893c-0.055-0.753-0.303-1.327-0.758-1.715c-0.451-0.394-1.016-0.585-1.682-0.585
				C306.155,10.173,305.593,10.377,305.192,10.793"/>
			<path fill="#FF7E00" d="M266.37,7.861c0.035,0.007,0.117,0.011,0.244,0.019v2.908c-0.18-0.019-0.34-0.035-0.477-0.037
				c-0.145-0.01-0.256-0.012-0.344-0.012c-1.139,0-1.908,0.372-2.297,1.113c-0.221,0.422-0.328,1.062-0.328,1.934v5.192h-2.865
				V8.116h2.713v1.896c0.439-0.726,0.82-1.222,1.146-1.485c0.535-0.443,1.217-0.667,2.076-0.667
				C266.29,7.859,266.333,7.86,266.37,7.861"/>
			<path fill="#FF7E00" d="M272.173,12.372c0.527-0.065,0.906-0.145,1.133-0.248c0.41-0.174,0.615-0.443,0.615-0.809
				c0-0.443-0.158-0.75-0.473-0.922c-0.311-0.167-0.771-0.254-1.377-0.254c-0.682,0-1.164,0.169-1.447,0.498
				c-0.199,0.246-0.334,0.578-0.402,0.996h-2.74c0.057-0.949,0.326-1.729,0.803-2.344c0.752-0.953,2.045-1.431,3.881-1.431
				c1.193,0,2.256,0.235,3.18,0.705c0.93,0.472,1.393,1.363,1.393,2.675v4.982c0,0.344,0.006,0.761,0.025,1.256
				c0.014,0.367,0.072,0.62,0.162,0.753c0.098,0.137,0.232,0.246,0.422,0.328v0.42h-3.092c-0.086-0.217-0.143-0.425-0.18-0.618
				c-0.033-0.191-0.061-0.412-0.078-0.654c-0.391,0.424-0.844,0.787-1.365,1.08c-0.613,0.354-1.307,0.533-2.076,0.533
				c-0.994,0-1.809-0.281-2.457-0.843c-0.643-0.562-0.965-1.358-0.965-2.39c0-1.335,0.518-2.301,1.555-2.9
				c0.566-0.322,1.408-0.555,2.51-0.695L272.173,12.372z M273.911,13.698c-0.186,0.113-0.371,0.205-0.553,0.276
				c-0.188,0.064-0.441,0.134-0.764,0.192l-0.646,0.121c-0.605,0.105-1.041,0.23-1.309,0.386c-0.445,0.257-0.668,0.663-0.668,1.206
				c0,0.486,0.137,0.835,0.408,1.055c0.275,0.213,0.609,0.318,0.998,0.318c0.621,0,1.191-0.174,1.715-0.538
				c0.525-0.358,0.797-1.007,0.818-1.963V13.698z"/>
			<path fill="#FF7E00" d="M145.08,26.329c0.776,0.334,1.425,0.873,1.934,1.606c0.457,0.642,0.755,1.392,0.89,2.243
				c0.078,0.499,0.111,1.219,0.096,2.156h-8.148c0.047,1.086,0.436,1.855,1.17,2.29c0.447,0.274,0.984,0.407,1.615,0.407
				c0.666,0,1.205-0.163,1.623-0.496c0.227-0.178,0.428-0.428,0.604-0.75h2.985c-0.08,0.646-0.443,1.301-1.088,1.963
				c-1.002,1.06-2.404,1.588-4.209,1.588c-1.486,0-2.799-0.446-3.938-1.338c-1.138-0.891-1.706-2.34-1.706-4.348
				c0-1.883,0.514-3.326,1.539-4.326c1.027-1.007,2.361-1.509,4.004-1.509C143.422,25.816,144.296,25.989,145.08,26.329
				 M140.702,28.78c-0.412,0.412-0.672,0.971-0.779,1.683h5.039c-0.053-0.758-0.312-1.327-0.777-1.72
				c-0.468-0.391-1.048-0.585-1.734-0.585C141.696,28.158,141.116,28.362,140.702,28.78"/>
			<path fill="#FF7E00" d="M296.218,8.292c0.516,0.289,0.928,0.692,1.248,1.201V4.311h2.879v14.668h-2.762v-1.501
				c-0.404,0.643-0.865,1.107-1.385,1.402c-0.514,0.295-1.162,0.439-1.928,0.439c-1.275,0-2.342-0.516-3.205-1.542
				c-0.865-1.024-1.303-2.341-1.303-3.95c0-1.852,0.426-3.309,1.281-4.373c0.852-1.061,1.998-1.595,3.424-1.595
				C295.124,7.859,295.708,8.003,296.218,8.292 M296.919,16.029c0.416-0.6,0.625-1.372,0.625-2.323c0-1.33-0.334-2.278-1.006-2.848
				c-0.41-0.348-0.889-0.52-1.434-0.52c-0.832,0-1.439,0.314-1.83,0.941c-0.391,0.629-0.582,1.408-0.582,2.338
				c0,1.003,0.199,1.807,0.596,2.406c0.393,0.602,0.992,0.901,1.797,0.901C295.888,16.926,296.499,16.628,296.919,16.029"/>
			<path fill="#FF7E00" d="M156.931,28.229v-2.024h1.559v-3.029h2.895v3.029h1.817v2.024h-1.817v5.737
				c0,0.445,0.057,0.727,0.172,0.832c0.117,0.111,0.475,0.166,1.07,0.166c0.09,0,0.184,0,0.281-0.005
				c0.1-0.003,0.197-0.003,0.294-0.013v2.119l-1.39,0.051c-1.379,0.049-2.322-0.187-2.831-0.697
				c-0.325-0.321-0.491-0.828-0.491-1.503v-6.688H156.931z"/>
			<path fill="#FF7E00" d="M170.243,30.36c0.546-0.063,0.938-0.152,1.17-0.248c0.42-0.168,0.631-0.44,0.631-0.807
				c0-0.447-0.158-0.755-0.482-0.924c-0.322-0.168-0.797-0.25-1.422-0.25c-0.701,0-1.197,0.164-1.486,0.494
				c-0.209,0.246-0.346,0.579-0.416,0.998h-2.825c0.062-0.95,0.339-1.729,0.828-2.343c0.774-0.956,2.108-1.433,3.997-1.433
				c1.229,0,2.322,0.236,3.278,0.709c0.954,0.469,1.433,1.361,1.433,2.668v4.98c0,0.348,0.008,0.768,0.02,1.258
				c0.021,0.369,0.078,0.624,0.174,0.758c0.099,0.13,0.242,0.242,0.432,0.33v0.418h-3.18c-0.09-0.221-0.15-0.426-0.186-0.618
				c-0.033-0.192-0.062-0.413-0.084-0.661c-0.405,0.424-0.875,0.791-1.402,1.086c-0.631,0.355-1.35,0.528-2.146,0.528
				c-1.017,0-1.859-0.278-2.523-0.839c-0.665-0.562-0.996-1.359-0.996-2.389c0-1.336,0.534-2.297,1.604-2.896
				c0.582-0.326,1.447-0.557,2.582-0.697L170.243,30.36z M172.036,31.686c-0.189,0.111-0.377,0.205-0.572,0.274
				c-0.188,0.07-0.449,0.136-0.781,0.195l-0.669,0.12c-0.622,0.103-1.071,0.235-1.344,0.386c-0.46,0.26-0.69,0.662-0.69,1.208
				c0,0.486,0.139,0.833,0.422,1.053c0.283,0.213,0.625,0.321,1.025,0.321c0.638,0,1.229-0.178,1.766-0.537
				c0.541-0.358,0.818-1.014,0.844-1.965V31.686z"/>
			<path fill="#FF7E00" d="M180.509,24.811h-2.963v-2.62h2.963V24.811z M177.546,26.104h2.963V36.97h-2.963V26.104z"/>
			<path fill="#FF7E00" d="M234.469,26.728c0.731,0.59,1.097,1.566,1.097,2.924v7.318h-2.994V30.36c0-0.57-0.078-1.008-0.234-1.314
				c-0.285-0.557-0.828-0.839-1.631-0.839c-0.982,0-1.656,0.411-2.026,1.226c-0.19,0.434-0.288,0.984-0.288,1.658v5.879h-2.92
				V26.124h2.832v1.586c0.371-0.556,0.729-0.96,1.063-1.206c0.595-0.437,1.358-0.66,2.279-0.66
				C232.796,25.844,233.735,26.145,234.469,26.728"/>
			<path fill="#FF7E00" d="M191.563,26.728c0.734,0.59,1.104,1.566,1.104,2.924v7.318h-3V30.36c0-0.57-0.076-1.008-0.234-1.314
				c-0.285-0.557-0.83-0.839-1.627-0.839c-0.986,0-1.662,0.411-2.029,1.226c-0.191,0.434-0.285,0.984-0.285,1.658v5.879h-2.926
				V26.124h2.83v1.586c0.377-0.556,0.734-0.96,1.066-1.206c0.597-0.437,1.357-0.66,2.277-0.66
				C189.891,25.844,190.835,26.145,191.563,26.728"/>
			<path fill="#FF7E00" d="M208.921,26.149c0.479,0.182,0.914,0.506,1.307,0.972c0.312,0.38,0.524,0.845,0.635,1.396
				c0.072,0.364,0.1,0.897,0.1,1.603l-0.021,6.85h-2.996v-6.917c0-0.414-0.066-0.751-0.204-1.017
				c-0.257-0.504-0.737-0.76-1.438-0.76c-0.805,0-1.365,0.326-1.67,0.977c-0.157,0.344-0.234,0.765-0.234,1.246v6.471h-2.948v-6.471
				c0-0.642-0.067-1.113-0.206-1.402c-0.244-0.529-0.729-0.788-1.444-0.788c-0.835,0-1.396,0.259-1.687,0.788
				c-0.152,0.297-0.233,0.746-0.233,1.332v6.541h-2.968V26.124h2.848v1.586c0.359-0.561,0.701-0.965,1.023-1.206
				c0.566-0.425,1.304-0.636,2.207-0.636c0.855,0,1.547,0.178,2.073,0.548c0.427,0.336,0.747,0.773,0.964,1.306
				c0.383-0.638,0.857-1.107,1.428-1.406c0.602-0.297,1.275-0.447,2.01-0.447C207.958,25.868,208.442,25.96,208.921,26.149"/>
			<path fill="#FF7E00" d="M220.841,26.329c0.777,0.334,1.427,0.873,1.932,1.606c0.46,0.642,0.756,1.392,0.891,2.243
				c0.082,0.499,0.113,1.219,0.099,2.156h-8.147c0.047,1.086,0.434,1.855,1.167,2.29c0.446,0.274,0.986,0.407,1.616,0.407
				c0.666,0,1.207-0.163,1.622-0.496c0.228-0.178,0.427-0.428,0.602-0.75h2.985c-0.078,0.646-0.438,1.301-1.084,1.963
				c-1.002,1.06-2.401,1.588-4.206,1.588c-1.488,0-2.802-0.446-3.942-1.338c-1.137-0.891-1.705-2.34-1.705-4.348
				c0-1.883,0.512-3.326,1.541-4.326c1.027-1.007,2.359-1.509,4-1.509C219.186,25.816,220.059,25.989,220.841,26.329 M216.46,28.78
				c-0.409,0.412-0.668,0.971-0.773,1.683h5.037c-0.055-0.758-0.309-1.327-0.777-1.72c-0.467-0.391-1.041-0.585-1.732-0.585
				C217.46,28.158,216.88,28.362,216.46,28.78"/>
			<path fill="#FF7E00" d="M237.138,28.229v-2.024h1.561v-3.029h2.893v3.029h1.818v2.024h-1.818v5.737
				c0,0.445,0.061,0.727,0.174,0.832c0.117,0.111,0.475,0.166,1.072,0.166c0.084,0,0.182,0,0.279-0.005
				c0.103-0.003,0.197-0.003,0.293-0.013v2.119l-1.385,0.051c-1.382,0.049-2.329-0.187-2.832-0.697
				c-0.329-0.321-0.494-0.828-0.494-1.503v-6.688H237.138z"/>
			<path fill="#FF7E00" d="M256.595,22.28h3.572l5.357,14.689h-3.43l-0.998-3.021h-5.572l-1.023,3.021h-3.31L256.595,22.28z
				 M256.39,31.416h3.871l-1.912-5.778L256.39,31.416z"/>
			<path fill="#FF7E00" d="M272.323,26.098c0.713,0.284,1.289,0.811,1.719,1.571v-1.565h2.857v10.302
				c0,1.406-0.244,2.461-0.73,3.172c-0.836,1.222-2.438,1.837-4.801,1.837c-1.426,0-2.6-0.275-3.5-0.819
				c-0.902-0.543-1.402-1.359-1.498-2.443h3.176c0.088,0.334,0.221,0.575,0.406,0.718c0.312,0.26,0.844,0.392,1.588,0.392
				c1.055,0,1.76-0.344,2.113-1.027c0.236-0.441,0.352-1.174,0.352-2.213v-0.697c-0.279,0.465-0.582,0.813-0.904,1.049
				c-0.58,0.432-1.334,0.648-2.268,0.648c-1.439,0-2.584-0.494-3.443-1.472c-0.855-0.982-1.289-2.309-1.289-3.981
				c0-1.613,0.412-2.973,1.242-4.07c0.826-1.096,1.998-1.653,3.52-1.653C271.419,25.844,271.905,25.929,272.323,26.098
				 M273.323,33.876c0.465-0.49,0.701-1.295,0.701-2.389c0-1.031-0.225-1.814-0.666-2.352c-0.447-0.538-1.045-0.811-1.797-0.811
				c-1.021,0-1.727,0.471-2.115,1.406c-0.205,0.502-0.303,1.115-0.303,1.845c0,0.628,0.104,1.194,0.324,1.683
				c0.395,0.92,1.105,1.378,2.127,1.378C272.276,34.637,272.853,34.388,273.323,33.876"/>
			<path fill="#FF7E00" d="M286.499,26.329c0.781,0.334,1.426,0.873,1.932,1.606c0.463,0.642,0.758,1.392,0.896,2.243
				c0.074,0.499,0.107,1.219,0.092,2.156h-8.146c0.047,1.086,0.434,1.855,1.17,2.29c0.445,0.274,0.984,0.407,1.613,0.407
				c0.668,0,1.211-0.163,1.625-0.496c0.227-0.178,0.426-0.428,0.6-0.75h2.988c-0.08,0.646-0.438,1.301-1.086,1.963
				c-0.998,1.06-2.406,1.588-4.205,1.588c-1.496,0-2.807-0.446-3.945-1.338c-1.139-0.891-1.707-2.34-1.707-4.348
				c0-1.883,0.518-3.326,1.541-4.326c1.033-1.007,2.365-1.509,4.002-1.509C284.841,25.816,285.718,25.989,286.499,26.329
				 M282.122,28.78c-0.414,0.412-0.67,0.971-0.779,1.683h5.041c-0.055-0.758-0.314-1.327-0.779-1.72
				c-0.469-0.391-1.043-0.585-1.736-0.585C283.114,28.158,282.534,28.362,282.122,28.78"/>
			<path fill="#FF7E00" d="M314.608,39.054l0.367,0.013c0.287,0.016,0.562,0.004,0.824-0.025c0.258-0.034,0.477-0.11,0.656-0.229
				c0.174-0.111,0.326-0.348,0.477-0.707c0.148-0.361,0.209-0.579,0.188-0.658l-4.109-11.343h3.256l2.439,8.013l2.314-8.013h3.104
				l-3.832,10.685c-0.742,2.061-1.324,3.336-1.76,3.832c-0.43,0.494-1.291,0.742-2.588,0.742c-0.262,0-0.469-0.004-0.629-0.008
				c-0.156-0.003-0.391-0.014-0.707-0.029V39.054z"/>
			<path fill="#FF7E00" d="M309.585,30.003c-0.049-0.406-0.193-0.771-0.42-1.098c-0.326-0.438-0.838-0.658-1.529-0.658
				c-0.988,0-1.66,0.477-2.027,1.426c-0.191,0.502-0.287,1.174-0.287,2.01c0,0.793,0.096,1.432,0.287,1.918
				c0.35,0.899,1.006,1.355,1.975,1.355c0.682,0,1.174-0.182,1.467-0.539c0.283-0.362,0.459-0.824,0.52-1.396h2.984
				c-0.062,0.864-0.393,1.681-0.965,2.45c-0.918,1.245-2.277,1.865-4.074,1.865c-1.803,0-3.129-0.519-3.979-1.556
				c-0.85-1.036-1.273-2.382-1.273-4.029c0-1.864,0.465-3.314,1.408-4.347c0.939-1.037,2.23-1.562,3.879-1.562
				c1.406,0,2.555,0.307,3.449,0.924c0.893,0.605,1.424,1.685,1.588,3.235H309.585z"/>
			<path fill="#FF7E00" d="M299.917,26.728c0.727,0.59,1.098,1.566,1.098,2.924v7.318h-2.996V30.36c0-0.57-0.076-1.008-0.238-1.314
				c-0.285-0.557-0.824-0.839-1.627-0.839c-0.984,0-1.662,0.411-2.029,1.226c-0.189,0.434-0.283,0.984-0.283,1.658v5.879h-2.924
				V26.124h2.828v1.586c0.379-0.556,0.732-0.96,1.064-1.206c0.602-0.437,1.361-0.66,2.277-0.66
				C298.239,25.844,299.183,26.145,299.917,26.728"/>
		</g>
	</g>
	<g>
		<g>
			<path fill="#FF7E00" d="M29.485,4.633c1.249,1.734,1.873,3.811,1.873,6.225c0,2.491-0.629,4.492-1.89,6.005
				c-0.703,0.849-1.741,1.622-3.11,2.324c2.082,0.755,3.652,1.954,4.712,3.596c1.057,1.643,1.587,3.635,1.587,5.977
				c0,2.416-0.604,4.584-1.814,6.501c-0.771,1.272-1.733,2.341-2.889,3.208c-1.303,0.999-2.839,1.68-4.608,2.049
				c-1.77,0.368-3.689,0.552-5.763,0.552H0V0.29h18.917C23.888,0.362,27.411,1.81,29.485,4.633 M8.135,7.372v8.993h9.119
				c1.771,0,3.209-0.339,4.314-1.012c1.104-0.672,1.655-1.867,1.655-3.583c0-1.898-0.729-3.152-2.19-3.761
				c-1.26-0.426-2.866-0.638-4.82-0.638H8.135z M8.135,23.114v10.874h9.109c1.769,0,3.145-0.24,4.129-0.721
				c1.787-0.885,2.681-2.58,2.681-5.091c0-2.121-0.865-3.578-2.599-4.371c-0.967-0.443-2.325-0.673-4.074-0.691H8.135z"/>
			<path fill="#FF7E00" d="M34.992,33.037c1.146-2.724,3.851-5.609,8.118-8.655c3.702-2.65,6.097-4.546,7.188-5.691
				c1.673-1.784,2.509-3.74,2.509-5.865c0-1.727-0.479-3.165-1.438-4.311s-2.331-1.721-4.117-1.721c-2.44,0-4.104,0.912-4.989,2.735
				c-0.507,1.053-0.808,2.724-0.901,5.018h-7.807c0.13-3.478,0.763-6.286,1.892-8.427C37.591,2.041,41.396,0,46.872,0
				c4.326,0,7.769,1.199,10.327,3.594c2.557,2.397,3.837,5.569,3.837,9.516c0,3.024-0.903,5.712-2.71,8.061
				c-1.188,1.561-3.135,3.297-5.848,5.214l-3.217,2.284c-2.015,1.426-3.395,2.463-4.137,3.101s-1.366,1.38-1.873,2.226h17.84v7.074
				H33.103C33.178,38.141,33.809,35.462,34.992,33.037"/>
		</g>
	</g>
	<g>
		<polygon fill="#FFC400" points="63.259,16.656 63.259,24.822 75.507,24.822 75.507,37.069 83.673,37.069 83.673,24.822 
			75.507,16.656 		"/>
		<polygon fill="#E12D1C" points="83.673,16.656 83.673,4.409 75.507,4.409 75.507,16.656 83.673,24.822 95.92,24.822 95.92,16.656 
					"/>
		<rect x="75.507" y="16.656" fill="#FF7E00" width="8.166" height="8.166"/>
	</g>
</g>
</svg>
