<?xml version="1.0" encoding="utf-8"?>
<!-- Generator: Adobe Illustrator 16.0.0, SVG Export Plug-In . SVG Version: 6.00 Build 0)  -->
<!DOCTYPE svg PUBLIC "-//W3C//DTD SVG 1.1//EN" "http://www.w3.org/Graphics/SVG/1.1/DTD/svg11.dtd">
<svg version="1.1" id="Layer_1" xmlns="http://www.w3.org/2000/svg" xmlns:xlink="http://www.w3.org/1999/xlink" x="0px" y="0px"
	 width="504.727px" height="63.951px" viewBox="0 0 504.727 63.951" enable-background="new 0 0 504.727 63.951"
	 xml:space="preserve">
<g>
	<g>
		<g>
			<polygon fill="#FF7E00" points="179.396,6.685 179.396,10.731 172.546,10.731 172.546,29.553 167.736,29.553 167.736,10.731 
				160.864,10.731 160.864,6.685 			"/>
			<path fill="#FF7E00" d="M242.444,40.258c0.058,0.002,0.189,0.013,0.391,0.024v4.528c-0.279-0.03-0.545-0.053-0.763-0.062
				c-0.224-0.005-0.407-0.015-0.543-0.015c-1.836,0-3.069,0.58-3.694,1.737c-0.354,0.646-0.527,1.66-0.527,3.018v8.08h-4.586v-16.92
				h4.348v2.949c0.701-1.124,1.313-1.897,1.839-2.313c0.849-0.691,1.955-1.04,3.321-1.04
				C242.314,40.244,242.395,40.251,242.444,40.258"/>
			<path fill="#FF7E00" d="M193.67,12.732c0.852,0.365,1.549,0.921,2.092,1.662c0.464,0.635,0.747,1.285,0.85,1.952
				c0.108,0.668,0.152,1.757,0.152,3.271v9.936h-4.511v-10.3c0-0.906-0.154-1.646-0.461-2.201c-0.407-0.789-1.164-1.188-2.285-1.188
				c-1.156,0-2.039,0.399-2.636,1.183c-0.604,0.777-0.905,1.897-0.905,3.345v9.162h-4.42V6.755h4.42v8.072
				c0.643-0.984,1.377-1.669,2.221-2.056c0.839-0.388,1.718-0.583,2.648-0.583C191.869,12.188,192.815,12.37,193.67,12.732"/>
			<path fill="#FF7E00" d="M210.983,12.981c1.185,0.532,2.161,1.363,2.929,2.504c0.692,1.004,1.139,2.172,1.351,3.496
				c0.113,0.776,0.162,1.894,0.143,3.359h-12.323c0.069,1.696,0.662,2.881,1.774,3.568c0.673,0.425,1.483,0.636,2.438,0.636
				c1.004,0,1.822-0.261,2.448-0.776c0.345-0.277,0.651-0.67,0.913-1.162h4.515c-0.12,1.003-0.664,2.018-1.64,3.058
				c-1.515,1.64-3.634,2.464-6.362,2.464c-2.251,0-4.231-0.695-5.954-2.079c-1.726-1.392-2.584-3.649-2.584-6.774
				c0-2.925,0.78-5.178,2.326-6.741c1.555-1.561,3.574-2.345,6.051-2.345C208.477,12.188,209.805,12.454,210.983,12.981
				 M204.371,16.806c-0.627,0.64-1.02,1.513-1.178,2.617h7.614c-0.078-1.173-0.468-2.068-1.171-2.671
				c-0.71-0.613-1.584-0.911-2.629-0.911C205.871,15.841,204.997,16.158,204.371,16.806"/>
			<path fill="#FF7E00" d="M197.72,41.619c1.14,0.919,1.708,2.439,1.708,4.554v11.396h-4.662V47.277c0-0.888-0.124-1.57-0.365-2.047
				c-0.442-0.867-1.29-1.307-2.54-1.307c-1.533,0-2.588,0.64-3.154,1.908c-0.301,0.676-0.453,1.532-0.453,2.583v9.153h-4.55V40.68
				h4.413v2.47c0.587-0.865,1.138-1.494,1.655-1.878c0.929-0.679,2.113-1.027,3.546-1.027
				C195.115,40.244,196.577,40.712,197.72,41.619"/>
			<polygon fill="#FF7E00" points="179.625,38.744 167.164,38.744 167.164,43.598 178.607,43.598 178.607,47.574 167.164,47.574 
				167.164,53.453 180.205,53.453 180.205,57.568 162.352,57.568 162.352,34.694 179.625,34.694 			"/>
			<path fill="#FF7E00" d="M242.612,9.126c0.7,0.97,1.046,2.129,1.046,3.482c0,1.403-0.349,2.524-1.054,3.371
				c-0.399,0.479-0.979,0.908-1.748,1.301c1.169,0.423,2.049,1.095,2.645,2.019c0.593,0.922,0.888,2.041,0.888,3.35
				c0,1.353-0.335,2.573-1.019,3.646c-0.423,0.716-0.97,1.313-1.618,1.794c-0.727,0.566-1.586,0.952-2.584,1.159
				c-0.99,0.198-2.066,0.306-3.232,0.306h-10.307V6.685h11.056C239.477,6.721,241.447,7.534,242.612,9.126 M230.188,10.651v5.044
				h5.565c0.986,0,1.795-0.184,2.415-0.562c0.624-0.381,0.934-1.048,0.934-2.011c0-1.064-0.416-1.768-1.231-2.113
				c-0.706-0.234-1.606-0.357-2.7-0.357H230.188z M230.188,19.487v6.092h5.562c0.987,0,1.759-0.132,2.315-0.403
				c1-0.495,1.497-1.446,1.497-2.857c0-1.181-0.483-2.004-1.45-2.45c-0.546-0.251-1.31-0.373-2.29-0.381H230.188z"/>
			<path fill="#FF7E00" d="M273.346,27.483c-1.426,1.764-3.594,2.645-6.5,2.645s-5.076-0.881-6.5-2.645
				c-1.434-1.761-2.146-3.882-2.146-6.361c0-2.439,0.713-4.551,2.146-6.346c1.424-1.784,3.594-2.677,6.5-2.677
				s5.074,0.893,6.5,2.677c1.43,1.795,2.141,3.906,2.141,6.346C275.487,23.602,274.776,25.723,273.346,27.483 M269.805,25.043
				c0.697-0.92,1.045-2.226,1.045-3.921c0-1.698-0.348-3-1.045-3.916c-0.689-0.912-1.684-1.365-2.973-1.365
				c-1.299,0-2.289,0.453-2.988,1.365c-0.697,0.916-1.049,2.218-1.049,3.916c0,1.695,0.352,3.001,1.049,3.921
				c0.699,0.918,1.689,1.375,2.988,1.375C268.122,26.418,269.116,25.961,269.805,25.043"/>
			<path fill="#FF7E00" d="M256.907,12.241c0.051,0.011,0.184,0.017,0.375,0.029v4.528c-0.277-0.029-0.523-0.055-0.74-0.058
				c-0.221-0.016-0.395-0.018-0.529-0.018c-1.777,0-2.974,0.579-3.583,1.733c-0.34,0.656-0.511,1.654-0.511,3.01v8.086h-4.452
				V12.638h4.215v2.952c0.685-1.131,1.283-1.902,1.784-2.313c0.835-0.69,1.904-1.037,3.23-1.037
				C256.782,12.239,256.85,12.24,256.907,12.241"/>
			<path fill="#FF7E00" d="M336.928,19.265c0.826-0.101,1.416-0.225,1.768-0.385c0.635-0.271,0.951-0.691,0.951-1.26
				c0-0.691-0.236-1.168-0.727-1.436c-0.482-0.261-1.203-0.396-2.145-0.396c-1.061,0-1.807,0.263-2.254,0.776
				c-0.309,0.382-0.527,0.899-0.619,1.551h-4.273c0.092-1.479,0.51-2.692,1.244-3.649c1.168-1.485,3.188-2.228,6.049-2.228
				c1.859,0,3.504,0.364,4.955,1.098c1.441,0.734,2.166,2.122,2.166,4.164v7.759c0,0.536,0.008,1.185,0.027,1.956
				c0.035,0.572,0.123,0.965,0.264,1.173c0.145,0.213,0.365,0.383,0.652,0.51v0.654h-4.807c-0.137-0.338-0.232-0.661-0.273-0.962
				c-0.064-0.298-0.102-0.642-0.131-1.02c-0.609,0.66-1.316,1.226-2.125,1.683c-0.961,0.549-2.037,0.83-3.248,0.83
				c-1.533,0-2.812-0.439-3.811-1.312c-1.006-0.875-1.508-2.115-1.508-3.722c0-2.079,0.809-3.583,2.426-4.517
				c0.877-0.501,2.182-0.862,3.906-1.082L336.928,19.265z M339.639,21.33c-0.287,0.177-0.574,0.32-0.857,0.431
				c-0.291,0.101-0.693,0.208-1.191,0.299l-1.004,0.189c-0.949,0.165-1.623,0.358-2.031,0.601c-0.701,0.4-1.047,1.032-1.047,1.878
				c0,0.758,0.209,1.301,0.637,1.643c0.428,0.332,0.941,0.496,1.549,0.496c0.963,0,1.867-0.271,2.676-0.838
				c0.816-0.559,1.24-1.567,1.27-3.058V21.33z"/>
			<path fill="#FF7E00" d="M401.137,9.126c0.693,0.97,1.045,2.129,1.045,3.482c0,1.403-0.352,2.524-1.057,3.371
				c-0.396,0.479-0.98,0.908-1.746,1.301c1.168,0.423,2.051,1.095,2.645,2.019c0.598,0.922,0.891,2.041,0.891,3.35
				c0,1.353-0.336,2.573-1.023,3.646c-0.428,0.716-0.973,1.313-1.613,1.794c-0.734,0.566-1.596,0.952-2.588,1.159
				c-0.992,0.198-2.07,0.306-3.229,0.306h-10.305V6.685h11.055C397.999,6.721,399.969,7.534,401.137,9.126 M388.715,10.651v5.044
				h5.561c0.994,0,1.797-0.184,2.422-0.562c0.611-0.381,0.92-1.048,0.92-2.011c0-1.064-0.408-1.768-1.223-2.113
				c-0.705-0.234-1.611-0.357-2.701-0.357H388.715z M388.715,19.487v6.092h5.557c0.986,0,1.758-0.132,2.316-0.403
				c0.998-0.495,1.496-1.446,1.496-2.857c0-1.181-0.48-2.004-1.455-2.45c-0.537-0.251-1.299-0.373-2.287-0.381H388.715z"/>
			<path fill="#FF7E00" d="M284.713,19.265c0.826-0.101,1.416-0.225,1.768-0.385c0.637-0.271,0.955-0.691,0.955-1.26
				c0-0.691-0.242-1.168-0.729-1.436c-0.494-0.261-1.211-0.396-2.148-0.396c-1.062,0-1.811,0.263-2.25,0.776
				c-0.32,0.382-0.527,0.899-0.633,1.551h-4.264c0.094-1.479,0.508-2.692,1.244-3.649c1.174-1.485,3.188-2.228,6.051-2.228
				c1.854,0,3.506,0.364,4.955,1.098c1.441,0.734,2.166,2.122,2.166,4.164v7.759c0,0.536,0.01,1.185,0.025,1.956
				c0.033,0.572,0.125,0.965,0.27,1.173c0.137,0.213,0.355,0.383,0.656,0.51v0.654h-4.818c-0.133-0.338-0.23-0.661-0.279-0.962
				c-0.045-0.298-0.094-0.642-0.121-1.02c-0.615,0.66-1.326,1.226-2.125,1.683c-0.957,0.549-2.037,0.83-3.246,0.83
				c-1.541,0-2.816-0.439-3.814-1.312c-1.002-0.875-1.508-2.115-1.508-3.722c0-2.079,0.809-3.583,2.422-4.517
				c0.887-0.501,2.189-0.862,3.914-1.082L284.713,19.265z M287.418,21.33c-0.277,0.177-0.568,0.32-0.857,0.431
				c-0.291,0.101-0.686,0.208-1.189,0.299l-1.01,0.189c-0.939,0.165-1.619,0.358-2.02,0.601c-0.703,0.4-1.051,1.032-1.051,1.878
				c0,0.758,0.213,1.301,0.641,1.643c0.426,0.332,0.947,0.496,1.549,0.496c0.965,0,1.855-0.271,2.67-0.838
				c0.814-0.559,1.236-1.567,1.268-3.058V21.33z"/>
			<path fill="#FF7E00" d="M323.311,18.711c-0.08-0.629-0.291-1.206-0.641-1.708c-0.486-0.684-1.27-1.023-2.32-1.023
				c-1.488,0-2.506,0.735-3.059,2.216c-0.289,0.786-0.43,1.829-0.43,3.127c0,1.239,0.141,2.237,0.43,2.988
				c0.535,1.407,1.523,2.107,2.986,2.107c1.033,0,1.773-0.275,2.215-0.839c0.43-0.558,0.691-1.276,0.787-2.168h4.516
				c-0.104,1.339-0.592,2.612-1.455,3.813c-1.393,1.932-3.447,2.903-6.17,2.903c-2.721,0-4.73-0.81-6.016-2.423
				c-1.279-1.611-1.918-3.704-1.918-6.275c0-2.9,0.705-5.162,2.125-6.775c1.422-1.606,3.375-2.415,5.871-2.415
				c2.117,0,3.861,0.476,5.205,1.431c1.357,0.948,2.154,2.631,2.406,5.041H323.311z"/>
			<path fill="#FF7E00" d="M304.022,12.912c0.797,0.45,1.441,1.078,1.939,1.869V6.713h4.484v22.84h-4.303v-2.337
				c-0.629,1.001-1.342,1.725-2.154,2.184c-0.805,0.459-1.805,0.685-3.004,0.685c-1.979,0-3.645-0.804-4.99-2.401
				c-1.354-1.596-2.031-3.646-2.031-6.151c0-2.883,0.668-5.152,1.992-6.809c1.336-1.652,3.115-2.483,5.34-2.483
				C302.315,12.239,303.225,12.462,304.022,12.912 M305.11,24.961c0.652-0.935,0.982-2.137,0.982-3.619
				c0-2.071-0.533-3.547-1.574-4.434c-0.643-0.541-1.381-0.809-2.232-0.809c-1.291,0-2.238,0.489-2.846,1.466
				c-0.609,0.979-0.904,2.192-0.904,3.641c0,1.561,0.303,2.813,0.916,3.747c0.615,0.937,1.557,1.403,2.807,1.403
				C303.502,26.356,304.454,25.894,305.11,24.961"/>
			<path fill="#FF7E00" d="M350.7,24.156c0.092,0.784,0.293,1.344,0.607,1.669c0.557,0.593,1.572,0.885,3.059,0.885
				c0.873,0,1.568-0.127,2.084-0.389c0.508-0.254,0.766-0.638,0.766-1.153c0-0.502-0.203-0.881-0.621-1.142
				c-0.414-0.257-1.953-0.698-4.621-1.334c-1.926-0.471-3.281-1.068-4.066-1.78c-0.787-0.706-1.178-1.716-1.178-3.044
				c0-1.562,0.611-2.902,1.832-4.025c1.24-1.122,2.963-1.68,5.199-1.68c2.113,0,3.838,0.423,5.17,1.261
				c1.33,0.848,2.088,2.302,2.289,4.371h-4.424c-0.057-0.573-0.221-1.023-0.479-1.352c-0.486-0.603-1.316-0.9-2.492-0.9
				c-0.965,0-1.654,0.147-2.062,0.449c-0.404,0.302-0.611,0.653-0.611,1.06c0,0.505,0.219,0.871,0.65,1.098
				c0.439,0.237,1.977,0.645,4.617,1.223c1.768,0.417,3.084,1.039,3.969,1.874c0.861,0.852,1.303,1.917,1.303,3.187
				c0,1.68-0.631,3.039-1.883,4.101c-1.246,1.073-3.178,1.595-5.781,1.595c-2.668,0-4.641-0.558-5.902-1.684
				c-1.271-1.122-1.906-2.551-1.906-4.288H350.7z"/>
			<path fill="#FF7E00" d="M201.876,43.957v-3.153h2.433v-4.717h4.502v4.717h2.834v3.153h-2.834v8.934
				c0,0.695,0.091,1.132,0.271,1.297c0.186,0.173,0.737,0.257,1.667,0.257c0.132,0,0.281,0,0.438-0.006
				c0.152-0.005,0.306-0.005,0.458-0.021v3.301l-2.162,0.078c-2.147,0.075-3.623-0.29-4.412-1.086
				c-0.51-0.501-0.762-1.289-0.762-2.341V43.957H201.876z"/>
			<path fill="#FF7E00" d="M447.803,13.611c1.109,0.915,1.662,2.437,1.662,4.556v11.386h-4.533V19.265
				c0-0.89-0.113-1.571-0.355-2.043c-0.426-0.875-1.248-1.304-2.459-1.304c-1.488,0-2.506,0.634-3.061,1.905
				c-0.295,0.671-0.438,1.527-0.438,2.577v9.152h-4.422V12.675h4.281v2.467c0.57-0.87,1.098-1.499,1.604-1.879
				c0.91-0.686,2.057-1.023,3.447-1.023C445.282,12.239,446.696,12.693,447.803,13.611"/>
			<path fill="#FF7E00" d="M497.719,12.912c0.803,0.45,1.449,1.078,1.945,1.869V6.713h4.484v22.84h-4.297v-2.337
				c-0.633,1.001-1.357,1.725-2.166,2.184c-0.801,0.459-1.805,0.685-3.006,0.685c-1.973,0-3.631-0.804-4.988-2.401
				c-1.348-1.596-2.021-3.646-2.021-6.151c0-2.883,0.664-5.152,1.988-6.809c1.334-1.652,3.107-2.483,5.338-2.483
				C496.016,12.239,496.928,12.462,497.719,12.912 M498.811,24.961c0.645-0.935,0.982-2.137,0.982-3.619
				c0-2.071-0.527-3.547-1.578-4.434c-0.639-0.541-1.383-0.809-2.23-0.809c-1.287,0-2.242,0.489-2.844,1.466
				c-0.609,0.979-0.908,2.192-0.908,3.641c0,1.561,0.305,2.813,0.926,3.747c0.611,0.937,1.545,1.403,2.799,1.403
				C497.206,26.356,498.159,25.894,498.811,24.961"/>
			<path fill="#FF7E00" d="M362.571,15.95v-3.157h2.355V8.084h4.375v4.709h2.746v3.157h-2.746v8.933c0,0.689,0.094,1.128,0.27,1.296
				c0.17,0.17,0.709,0.259,1.613,0.259c0.127,0,0.268-0.007,0.428-0.012c0.15-0.002,0.297-0.017,0.436-0.024v3.306l-2.084,0.078
				c-2.096,0.073-3.529-0.282-4.289-1.085c-0.502-0.505-0.748-1.285-0.748-2.344V15.95H362.571z"/>
			<path fill="#FF7E00" d="M481.866,12.981c1.176,0.532,2.145,1.363,2.916,2.504c0.697,1.004,1.143,2.172,1.348,3.496
				c0.121,0.776,0.168,1.894,0.141,3.359h-12.311c0.07,1.696,0.654,2.881,1.764,3.568c0.682,0.425,1.494,0.636,2.441,0.636
				c1.008,0,1.828-0.261,2.459-0.776c0.346-0.277,0.643-0.67,0.91-1.162h4.516c-0.121,1.003-0.672,2.018-1.646,3.058
				c-1.508,1.64-3.631,2.464-6.361,2.464c-2.244,0-4.236-0.695-5.955-2.079c-1.721-1.392-2.58-3.649-2.58-6.774
				c0-2.925,0.777-5.178,2.332-6.741c1.549-1.561,3.566-2.345,6.051-2.345C479.36,12.188,480.686,12.454,481.866,12.981
				 M475.247,16.806c-0.629,0.64-1.018,1.513-1.18,2.617h7.619c-0.084-1.173-0.471-2.068-1.18-2.671
				c-0.703-0.613-1.582-0.911-2.617-0.911C476.747,15.841,475.87,16.158,475.247,16.806"/>
			<path fill="#FF7E00" d="M414.793,12.241c0.055,0.011,0.182,0.017,0.379,0.029v4.528c-0.279-0.029-0.529-0.055-0.74-0.058
				c-0.227-0.016-0.398-0.018-0.535-0.018c-1.773,0-2.973,0.579-3.578,1.733c-0.342,0.656-0.512,1.654-0.512,3.01v8.086h-4.461
				V12.638h4.225v2.952c0.684-1.131,1.277-1.902,1.787-2.313c0.832-0.69,1.893-1.037,3.232-1.037
				C414.668,12.239,414.735,12.24,414.793,12.241"/>
			<path fill="#FF7E00" d="M423.829,19.265c0.822-0.101,1.41-0.225,1.766-0.385c0.637-0.271,0.959-0.691,0.959-1.26
				c0-0.691-0.248-1.168-0.738-1.436c-0.482-0.261-1.199-0.396-2.143-0.396c-1.062,0-1.814,0.263-2.256,0.776
				c-0.309,0.382-0.521,0.899-0.625,1.551h-4.268c0.09-1.479,0.508-2.692,1.25-3.649c1.172-1.485,3.184-2.228,6.045-2.228
				c1.857,0,3.512,0.364,4.949,1.098c1.449,0.734,2.17,2.122,2.17,4.164v7.759c0,0.536,0.008,1.185,0.039,1.956
				c0.02,0.572,0.111,0.965,0.252,1.173c0.152,0.213,0.363,0.383,0.656,0.51v0.654h-4.814c-0.133-0.338-0.223-0.661-0.279-0.962
				c-0.051-0.298-0.094-0.642-0.121-1.02c-0.607,0.66-1.314,1.226-2.127,1.683c-0.953,0.549-2.033,0.83-3.232,0.83
				c-1.549,0-2.816-0.439-3.826-1.312c-1.002-0.875-1.504-2.115-1.504-3.722c0-2.079,0.809-3.583,2.422-4.517
				c0.883-0.501,2.191-0.862,3.91-1.082L423.829,19.265z M426.536,21.33c-0.291,0.177-0.578,0.32-0.859,0.431
				c-0.293,0.101-0.689,0.208-1.191,0.299l-1.006,0.189c-0.943,0.165-1.621,0.358-2.037,0.601c-0.695,0.4-1.041,1.032-1.041,1.878
				c0,0.758,0.213,1.301,0.637,1.643c0.43,0.332,0.949,0.496,1.555,0.496c0.967,0,1.854-0.271,2.672-0.838
				c0.816-0.559,1.238-1.567,1.271-3.058V21.33z"/>
			<path fill="#FF7E00" d="M225.92,41c1.21,0.52,2.218,1.359,3.01,2.501c0.712,0.999,1.177,2.167,1.386,3.493
				c0.123,0.776,0.174,1.897,0.15,3.357h-12.689c0.073,1.69,0.678,2.89,1.821,3.566c0.696,0.427,1.533,0.634,2.516,0.634
				c1.037,0,1.877-0.254,2.527-0.773c0.353-0.276,0.667-0.664,0.941-1.166h4.648c-0.124,1.006-0.69,2.025-1.694,3.056
				c-1.559,1.65-3.742,2.474-6.554,2.474c-2.314,0-4.358-0.695-6.131-2.085c-1.772-1.385-2.658-3.643-2.658-6.771
				c0-2.931,0.8-5.179,2.396-6.735c1.6-1.567,3.677-2.35,6.233-2.35C223.339,40.201,224.698,40.47,225.92,41 M219.104,44.816
				c-0.643,0.642-1.047,1.512-1.214,2.62h7.847c-0.083-1.18-0.487-2.065-1.212-2.679c-0.727-0.607-1.632-0.911-2.701-0.911
				C220.65,43.847,219.747,44.166,219.104,44.816"/>
			<path fill="#FF7E00" d="M461.272,12.912c0.805,0.45,1.443,1.078,1.945,1.869V6.713h4.48v22.84h-4.299v-2.337
				c-0.629,1.001-1.35,1.725-2.156,2.184c-0.801,0.459-1.811,0.685-3.004,0.685c-1.984,0-3.646-0.804-4.992-2.401
				c-1.344-1.596-2.025-3.646-2.025-6.151c0-2.883,0.662-5.152,1.994-6.809c1.326-1.652,3.111-2.483,5.33-2.483
				C459.569,12.239,460.479,12.462,461.272,12.912 M462.364,24.961c0.646-0.935,0.975-2.137,0.975-3.619
				c0-2.071-0.521-3.547-1.566-4.434c-0.641-0.541-1.385-0.809-2.232-0.809c-1.297,0-2.244,0.489-2.852,1.466
				c-0.607,0.979-0.906,2.192-0.906,3.641c0,1.561,0.311,2.813,0.928,3.747c0.613,0.937,1.545,1.403,2.797,1.403
				S461.711,25.894,462.364,24.961"/>
			<path fill="#FF7E00" d="M244.374,43.957v-3.153h2.427v-4.717h4.508v4.717h2.831v3.153h-2.831v8.934
				c0,0.695,0.087,1.132,0.267,1.297c0.182,0.173,0.74,0.257,1.667,0.257c0.14,0,0.286,0,0.438-0.006
				c0.156-0.005,0.309-0.005,0.459-0.021v3.301l-2.165,0.078c-2.146,0.075-3.618-0.29-4.41-1.086
				c-0.505-0.501-0.764-1.289-0.764-2.341V43.957H244.374z"/>
			<path fill="#FF7E00" d="M265.104,47.277c0.85-0.1,1.461-0.237,1.82-0.388c0.654-0.261,0.982-0.686,0.982-1.256
				c0-0.696-0.246-1.176-0.75-1.438c-0.502-0.261-1.24-0.39-2.215-0.39c-1.09,0-1.863,0.255-2.316,0.77
				c-0.322,0.384-0.537,0.901-0.645,1.554h-4.4c0.098-1.479,0.527-2.691,1.291-3.648c1.203-1.487,3.281-2.23,6.223-2.23
				c1.914,0,3.617,0.369,5.105,1.104c1.486,0.729,2.232,2.12,2.232,4.153v7.757c0,0.541,0.012,1.195,0.027,1.959
				c0.035,0.574,0.123,0.972,0.271,1.18c0.156,0.202,0.377,0.377,0.674,0.514v0.65h-4.953c-0.141-0.343-0.232-0.662-0.287-0.962
				c-0.053-0.301-0.098-0.645-0.133-1.03c-0.629,0.66-1.359,1.231-2.182,1.691c-0.982,0.554-2.102,0.823-3.344,0.823
				c-1.582,0-2.895-0.434-3.93-1.306c-1.035-0.876-1.551-2.119-1.551-3.721c0-2.08,0.832-3.576,2.496-4.51
				c0.908-0.508,2.256-0.867,4.021-1.086L265.104,47.277z M267.897,49.341c-0.295,0.172-0.588,0.319-0.893,0.427
				c-0.293,0.109-0.699,0.211-1.217,0.305l-1.041,0.188c-0.969,0.158-1.668,0.366-2.094,0.601c-0.715,0.403-1.072,1.03-1.072,1.881
				c0,0.758,0.215,1.297,0.654,1.639c0.443,0.332,0.975,0.501,1.598,0.501c0.994,0,1.912-0.277,2.748-0.837
				c0.844-0.56,1.277-1.579,1.316-3.06V49.341z"/>
			<path fill="#FF7E00" d="M281.09,38.636h-4.615v-4.081h4.615V38.636z M276.475,40.648h4.615v16.92h-4.615V40.648z"/>
			<path fill="#FF7E00" d="M365.118,41.619c1.137,0.919,1.707,2.439,1.707,4.554v11.396h-4.662V47.277
				c0-0.888-0.123-1.57-0.365-2.047c-0.443-0.867-1.289-1.307-2.539-1.307c-1.531,0-2.58,0.64-3.156,1.908
				c-0.299,0.676-0.449,1.532-0.449,2.583v9.153h-4.547V40.68h4.41v2.47c0.578-0.865,1.133-1.494,1.656-1.878
				c0.926-0.679,2.113-1.027,3.551-1.027C362.51,40.244,363.975,40.712,365.118,41.619"/>
			<path fill="#FF7E00" d="M298.303,41.619c1.146,0.919,1.721,2.439,1.721,4.554v11.396h-4.672V47.277
				c0-0.888-0.121-1.57-0.365-2.047c-0.443-0.867-1.293-1.307-2.535-1.307c-1.535,0-2.586,0.64-3.16,1.908
				c-0.299,0.676-0.443,1.532-0.443,2.583v9.153h-4.557V40.68h4.408v2.47c0.588-0.865,1.145-1.494,1.66-1.878
				c0.93-0.679,2.113-1.027,3.547-1.027C295.7,40.244,297.17,40.712,298.303,41.619"/>
			<path fill="#FF7E00" d="M325.334,40.72c0.744,0.282,1.424,0.788,2.033,1.513c0.488,0.592,0.814,1.314,0.988,2.175
				c0.111,0.567,0.154,1.396,0.154,2.496l-0.031,10.665h-4.666V46.798c0-0.646-0.104-1.17-0.32-1.584
				c-0.398-0.784-1.146-1.183-2.236-1.183c-1.256,0-2.129,0.508-2.604,1.521c-0.244,0.534-0.363,1.19-0.363,1.94v10.075h-4.592
				V47.493c0-1-0.104-1.734-0.32-2.185c-0.381-0.823-1.135-1.227-2.25-1.227c-1.299,0-2.172,0.403-2.625,1.227
				c-0.238,0.463-0.363,1.162-0.363,2.075v10.185h-4.621V40.68h4.434v2.47c0.559-0.872,1.092-1.502,1.592-1.878
				c0.885-0.662,2.033-0.989,3.439-0.989c1.332,0,2.408,0.276,3.227,0.853c0.666,0.522,1.166,1.205,1.502,2.032
				c0.596-0.992,1.336-1.725,2.223-2.188c0.938-0.463,1.988-0.696,3.131-0.696C323.833,40.282,324.588,40.425,325.334,40.72"/>
			<path fill="#FF7E00" d="M343.897,41c1.211,0.52,2.221,1.359,3.006,2.501c0.715,0.999,1.178,2.167,1.387,3.493
				c0.127,0.776,0.176,1.897,0.154,3.357h-12.688c0.074,1.69,0.674,2.89,1.816,3.566c0.695,0.427,1.537,0.634,2.518,0.634
				c1.039,0,1.877-0.254,2.525-0.773c0.355-0.276,0.666-0.664,0.936-1.166h4.648c-0.119,1.006-0.68,2.025-1.688,3.056
				c-1.561,1.65-3.738,2.474-6.547,2.474c-2.318,0-4.365-0.695-6.143-2.085c-1.77-1.385-2.652-3.643-2.652-6.771
				c0-2.931,0.797-5.179,2.4-6.735c1.598-1.567,3.67-2.35,6.229-2.35C341.317,40.201,342.676,40.47,343.897,41 M337.075,44.816
				c-0.639,0.642-1.043,1.512-1.205,2.62h7.844c-0.084-1.18-0.48-2.065-1.211-2.679c-0.727-0.607-1.621-0.911-2.697-0.911
				C338.631,43.847,337.725,44.166,337.075,44.816"/>
			<path fill="#FF7E00" d="M369.274,43.957v-3.153h2.428v-4.717h4.504v4.717h2.832v3.153h-2.832v8.934
				c0,0.695,0.098,1.132,0.271,1.297c0.182,0.173,0.74,0.257,1.668,0.257c0.133,0,0.285,0,0.438-0.006
				c0.16-0.005,0.307-0.005,0.455-0.021v3.301l-2.154,0.078c-2.15,0.075-3.629-0.29-4.41-1.086
				c-0.514-0.501-0.771-1.289-0.771-2.341V43.957H369.274z"/>
			<path fill="#FF7E00" d="M399.571,34.694h5.562l8.344,22.874h-5.342l-1.553-4.704h-8.68l-1.592,4.704h-5.154L399.571,34.694z
				 M399.252,48.921h6.025l-2.975-8.998L399.252,48.921z"/>
			<path fill="#FF7E00" d="M424.063,40.639c1.111,0.442,2.008,1.263,2.678,2.447v-2.438h4.449V56.69
				c0,2.188-0.381,3.833-1.139,4.938c-1.301,1.902-3.795,2.861-7.477,2.861c-2.217,0-4.047-0.43-5.447-1.277
				c-1.408-0.845-2.186-2.116-2.334-3.804h4.945c0.137,0.521,0.342,0.895,0.631,1.117c0.488,0.405,1.316,0.609,2.475,0.609
				c1.641,0,2.738-0.534,3.291-1.599c0.367-0.688,0.547-1.828,0.547-3.446v-1.086c-0.438,0.725-0.906,1.267-1.41,1.633
				c-0.9,0.673-2.076,1.01-3.529,1.01c-2.242,0-4.023-0.77-5.361-2.291c-1.332-1.529-2.008-3.595-2.008-6.2
				c0-2.512,0.641-4.628,1.934-6.339c1.287-1.704,3.111-2.573,5.482-2.573C422.657,40.244,423.411,40.377,424.063,40.639
				 M425.62,52.752c0.725-0.764,1.094-2.017,1.094-3.72c0-1.607-0.352-2.827-1.037-3.661c-0.697-0.84-1.629-1.264-2.799-1.264
				c-1.59,0-2.689,0.733-3.295,2.19c-0.318,0.781-0.471,1.736-0.471,2.871c0,0.979,0.162,1.861,0.506,2.621
				c0.615,1.433,1.721,2.146,3.311,2.146C423.991,53.937,424.887,53.549,425.62,52.752"/>
			<path fill="#FF7E00" d="M446.137,41c1.217,0.52,2.223,1.359,3.008,2.501c0.723,0.999,1.182,2.167,1.398,3.493
				c0.113,0.776,0.166,1.897,0.143,3.357h-12.688c0.074,1.69,0.676,2.89,1.822,3.566c0.693,0.427,1.533,0.634,2.514,0.634
				c1.039,0,1.885-0.254,2.529-0.773c0.352-0.276,0.662-0.664,0.934-1.166h4.654c-0.125,1.006-0.684,2.025-1.691,3.056
				c-1.555,1.65-3.748,2.474-6.549,2.474c-2.328,0-4.369-0.695-6.143-2.085c-1.773-1.385-2.66-3.643-2.66-6.771
				c0-2.931,0.807-5.179,2.4-6.735c1.609-1.567,3.684-2.35,6.232-2.35C443.555,40.201,444.922,40.47,446.137,41 M439.323,44.816
				c-0.645,0.642-1.043,1.512-1.213,2.62h7.85c-0.088-1.18-0.492-2.065-1.215-2.679c-0.729-0.607-1.625-0.911-2.703-0.911
				C440.866,43.847,439.965,44.166,439.323,44.816"/>
			<path fill="#FF7E00" d="M489.909,60.814l0.574,0.021c0.447,0.023,0.875,0.005,1.281-0.04c0.402-0.055,0.742-0.172,1.021-0.357
				c0.273-0.174,0.51-0.541,0.742-1.101c0.232-0.564,0.326-0.902,0.293-1.025l-6.398-17.663h5.068l3.801,12.478l3.605-12.478h4.83
				l-5.967,16.638c-1.156,3.208-2.061,5.194-2.738,5.966c-0.67,0.771-2.012,1.158-4.033,1.158c-0.406,0-0.729-0.008-0.979-0.013
				c-0.244-0.005-0.607-0.021-1.102-0.046V60.814z"/>
			<path fill="#FF7E00" d="M482.086,46.72c-0.074-0.633-0.301-1.2-0.652-1.709c-0.51-0.681-1.305-1.024-2.383-1.024
				c-1.537,0-2.584,0.741-3.154,2.219c-0.301,0.783-0.449,1.829-0.449,3.131c0,1.234,0.148,2.229,0.449,2.987
				c0.545,1.399,1.564,2.11,3.072,2.11c1.062,0,1.828-0.283,2.285-0.839c0.441-0.565,0.715-1.284,0.809-2.174h4.648
				c-0.1,1.346-0.613,2.617-1.502,3.815c-1.432,1.938-3.549,2.905-6.348,2.905c-2.809,0-4.869-0.809-6.193-2.423
				s-1.986-3.711-1.986-6.275c0-2.901,0.725-5.161,2.197-6.768c1.461-1.615,3.473-2.432,6.037-2.432c2.191,0,3.98,0.477,5.373,1.438
				c1.389,0.942,2.219,2.622,2.473,5.037H482.086z"/>
			<path fill="#FF7E00" d="M467.034,41.619c1.131,0.919,1.709,2.439,1.709,4.554v11.396h-4.666V47.277
				c0-0.888-0.119-1.57-0.373-2.047c-0.443-0.867-1.281-1.307-2.531-1.307c-1.533,0-2.59,0.64-3.16,1.908
				c-0.295,0.676-0.441,1.532-0.441,2.583v9.153h-4.553V40.68h4.402v2.47c0.592-0.865,1.143-1.494,1.658-1.878
				c0.938-0.679,2.121-1.027,3.547-1.027C464.42,40.244,465.889,40.712,467.034,41.619"/>
		</g>
	</g>
	<g>
		<g>
			<path fill="#FF7E00" d="M45.915,7.214c1.945,2.701,2.917,5.934,2.917,9.693c0,3.879-0.979,6.995-2.943,9.35
				c-1.095,1.322-2.711,2.526-4.842,3.62c3.241,1.176,5.687,3.042,7.336,5.599c1.646,2.558,2.472,5.66,2.472,9.308
				c0,3.762-0.94,7.138-2.825,10.124c-1.201,1.98-2.7,3.644-4.499,4.994c-2.028,1.557-4.419,2.616-7.175,3.191
				c-2.757,0.572-5.746,0.858-8.975,0.858H0V0.452h29.458C37.199,0.562,42.687,2.817,45.915,7.214 M12.669,11.479v14.004h14.198
				c2.76,0,4.999-0.527,6.719-1.574c1.719-1.048,2.579-2.909,2.579-5.581c0-2.955-1.137-4.907-3.411-5.855
				c-1.963-0.663-4.464-0.993-7.506-0.993H12.669z M12.669,35.994v16.933h14.185c2.754,0,4.896-0.375,6.429-1.123
				c2.783-1.377,4.174-4.018,4.174-7.928c0-3.302-1.347-5.572-4.045-6.806c-1.505-0.69-3.621-1.049-6.346-1.076H12.669z"/>
			<path fill="#FF7E00" d="M54.491,51.445c1.783-4.241,5.995-8.736,12.64-13.478c5.768-4.128,9.496-7.08,11.193-8.862
				c2.605-2.78,3.908-5.825,3.908-9.135c0-2.688-0.747-4.929-2.239-6.712s-3.629-2.68-6.41-2.68c-3.802,0-6.39,1.42-7.771,4.26
				c-0.79,1.639-1.258,4.24-1.402,7.813H52.253c0.201-5.416,1.188-9.79,2.945-13.122C58.537,3.179,64.463,0,72.99,0
				c6.736,0,12.098,1.867,16.081,5.596c3.98,3.732,5.976,8.673,5.976,14.817c0,4.711-1.407,8.896-4.22,12.552
				c-1.852,2.431-4.883,5.135-9.105,8.12l-5.011,3.557c-3.138,2.22-5.285,3.835-6.441,4.828c-1.155,0.993-2.128,2.148-2.917,3.465
				h27.781v11.017H51.548C51.666,59.393,52.647,55.221,54.491,51.445"/>
		</g>
	</g>
	<g>
		<polygon fill="#FFC400" points="98.508,25.938 98.508,38.653 117.581,38.653 117.581,57.724 130.296,57.724 130.296,38.653 
			117.581,25.938 		"/>
		<polygon fill="#E12D1C" points="130.296,25.938 130.296,6.866 117.581,6.866 117.581,25.938 130.296,38.653 149.367,38.653 
			149.367,25.938 		"/>
		<rect x="117.581" y="25.938" fill="#FF7E00" width="12.715" height="12.716"/>
	</g>
</g>
</svg>
