<?xml version="1.0" encoding="utf-8"?>
<!-- Generator: Adobe Illustrator 16.0.0, SVG Export Plug-In . SVG Version: 6.00 Build 0)  -->
<!DOCTYPE svg PUBLIC "-//W3C//DTD SVG 1.1//EN" "http://www.w3.org/Graphics/SVG/1.1/DTD/svg11.dtd">
<svg version="1.1" id="Layer_1" xmlns="http://www.w3.org/2000/svg" xmlns:xlink="http://www.w3.org/1999/xlink" x="0px" y="0px"
	 width="295.75px" height="41.414px" viewBox="0 0 295.75 41.414" enable-background="new 0 0 295.75 41.414" xml:space="preserve">
<g>
	<g>
		<path fill="#FF7E00" d="M29.485,4.633c1.249,1.734,1.873,3.811,1.873,6.225c0,2.491-0.629,4.492-1.89,6.005
			c-0.703,0.849-1.741,1.622-3.11,2.324c2.082,0.755,3.652,1.954,4.712,3.596c1.057,1.643,1.587,3.635,1.587,5.977
			c0,2.416-0.604,4.584-1.814,6.501c-0.771,1.272-1.733,2.341-2.889,3.208c-1.303,0.999-2.839,1.68-4.608,2.049
			c-1.77,0.368-3.689,0.553-5.763,0.553H0V0.29h18.917C23.888,0.362,27.411,1.81,29.485,4.633 M8.135,7.372v8.993h9.119
			c1.771,0,3.209-0.339,4.314-1.012c1.104-0.672,1.655-1.867,1.655-3.583c0-1.898-0.729-3.152-2.19-3.761
			c-1.26-0.426-2.866-0.638-4.82-0.638L8.135,7.372L8.135,7.372z M8.135,23.114v10.874h9.109c1.769,0,3.145-0.24,4.129-0.721
			c1.787-0.887,2.681-2.58,2.681-5.093c0-2.12-0.865-3.577-2.599-4.37c-0.967-0.443-2.325-0.674-4.074-0.69H8.135z"/>
		<path fill="#FF7E00" d="M34.992,33.037c1.146-2.725,3.851-5.609,8.118-8.655c3.702-2.649,6.097-4.546,7.188-5.691
			c1.673-1.784,2.509-3.74,2.509-5.865c0-1.727-0.479-3.165-1.438-4.311s-2.331-1.721-4.117-1.721c-2.44,0-4.104,0.912-4.989,2.735
			c-0.507,1.053-0.808,2.724-0.901,5.018h-7.807c0.13-3.478,0.763-6.286,1.892-8.427C37.591,2.041,41.396,0,46.872,0
			c4.326,0,7.769,1.199,10.327,3.594c2.557,2.397,3.837,5.569,3.837,9.516c0,3.024-0.903,5.712-2.71,8.061
			c-1.188,1.562-3.135,3.297-5.848,5.214l-3.217,2.284c-2.015,1.426-3.395,2.463-4.137,3.101c-0.742,0.64-1.366,1.381-1.873,2.228
			h17.84v7.073H33.103C33.178,38.141,33.809,35.462,34.992,33.037"/>
	</g>
</g>
<g>
	<polygon fill="#FFC400" points="63.259,16.656 63.259,24.822 75.507,24.822 75.507,37.068 83.673,37.068 83.673,24.822 
		75.507,16.656 	"/>
	<polygon fill="#E12D1C" points="83.673,16.656 83.673,4.409 75.507,4.409 75.507,16.656 83.673,24.822 95.92,24.822 95.92,16.656 	
		"/>
	<rect x="75.507" y="16.656" fill="#FF7E00" width="8.166" height="8.166"/>
</g>
<g>
	<path fill="#FF7E00" d="M115.13,4.336v2.589h-4.375v12.032h-3.074V6.925h-4.395V4.336H115.13z"/>
	<path fill="#FF7E00" d="M122.021,8.206c0.543,0.23,0.989,0.586,1.338,1.061c0.295,0.405,0.477,0.82,0.543,1.247
		c0.065,0.426,0.099,1.125,0.099,2.09v6.354h-2.887v-6.583c0-0.582-0.099-1.052-0.296-1.41c-0.256-0.503-0.742-0.755-1.457-0.755
		c-0.743,0-1.305,0.25-1.689,0.75c-0.384,0.5-0.575,1.214-0.575,2.141v5.858h-2.827V4.386h2.827v5.159
		c0.408-0.628,0.88-1.066,1.416-1.315c0.537-0.246,1.102-0.371,1.694-0.371C120.873,7.858,121.478,7.975,122.021,8.206z"/>
	<path fill="#FF7E00" d="M133.298,8.364c0.754,0.339,1.376,0.872,1.867,1.601c0.444,0.642,0.73,1.387,0.862,2.233
		c0.076,0.496,0.107,1.213,0.093,2.146h-7.875c0.044,1.083,0.421,1.845,1.132,2.281c0.431,0.273,0.951,0.408,1.558,0.408
		c0.646,0,1.167-0.166,1.571-0.498c0.219-0.176,0.413-0.426,0.582-0.743h2.886c-0.076,0.642-0.425,1.292-1.048,1.955
		c-0.968,1.05-2.324,1.576-4.068,1.576c-1.438,0-2.708-0.444-3.809-1.33c-1.099-0.889-1.649-2.331-1.649-4.328
		c0-1.874,0.496-3.31,1.489-4.31c0.994-0.999,2.282-1.499,3.866-1.499C131.696,7.858,132.543,8.027,133.298,8.364z M129.069,10.807
		c-0.4,0.412-0.651,0.97-0.754,1.673h4.871c-0.052-0.75-0.303-1.319-0.753-1.708c-0.451-0.389-1.01-0.583-1.676-0.583
		C130.03,10.189,129.468,10.396,129.069,10.807z"/>
	<path fill="#FF7E00" d="M143.195,5.866c1.176-1.206,2.675-1.806,4.494-1.806c2.433,0,4.213,0.807,5.338,2.419
		c0.621,0.906,0.955,1.816,1,2.728h-3.055c-0.193-0.701-0.443-1.229-0.748-1.586c-0.543-0.634-1.351-0.952-2.419-0.952
		c-1.088,0-1.946,0.449-2.574,1.345c-0.629,0.895-0.944,2.163-0.944,3.804c0,1.638,0.332,2.867,0.995,3.684
		c0.664,0.818,1.506,1.225,2.529,1.225c1.046,0,1.846-0.35,2.396-1.05c0.304-0.378,0.557-0.944,0.757-1.696H154
		c-0.264,1.592-0.932,2.89-2.008,3.888c-1.076,0.999-2.455,1.498-4.136,1.498c-2.081,0-3.717-0.676-4.907-2.024
		c-1.19-1.355-1.785-3.213-1.785-5.574C141.164,9.213,141.839,7.245,143.195,5.866z"/>
	<path fill="#FF7E00" d="M158.65,8.146v6.517c0,0.615,0.072,1.079,0.217,1.39c0.256,0.549,0.76,0.824,1.51,0.824
		c0.961,0,1.621-0.392,1.975-1.174c0.184-0.422,0.276-0.981,0.276-1.675V8.146h2.865v10.812h-2.746V17.43
		c-0.026,0.035-0.092,0.132-0.198,0.299c-0.105,0.166-0.23,0.311-0.377,0.436c-0.439,0.396-0.867,0.667-1.279,0.813
		s-0.896,0.218-1.449,0.218c-1.596,0-2.672-0.574-3.227-1.726c-0.309-0.635-0.464-1.571-0.464-2.807V8.146H158.65z"/>
	<path fill="#FF7E00" d="M170.029,15.506c0.059,0.502,0.188,0.859,0.388,1.071c0.353,0.376,1.003,0.564,1.954,0.564
		c0.557,0,1-0.08,1.33-0.246c0.328-0.165,0.492-0.415,0.492-0.744c0-0.317-0.133-0.559-0.396-0.724
		c-0.265-0.166-1.252-0.45-2.957-0.854c-1.229-0.303-2.096-0.684-2.598-1.141c-0.502-0.449-0.753-1.098-0.753-1.945
		c0-0.998,0.392-1.855,1.177-2.574c0.785-0.717,1.893-1.075,3.316-1.075c1.352,0,2.453,0.27,3.304,0.808
		c0.853,0.54,1.343,1.47,1.468,2.792h-2.826c-0.041-0.363-0.143-0.649-0.309-0.862c-0.312-0.384-0.844-0.575-1.592-0.575
		c-0.618,0-1.058,0.097-1.318,0.288c-0.262,0.191-0.395,0.417-0.395,0.675c0,0.323,0.141,0.558,0.42,0.704
		c0.276,0.151,1.263,0.413,2.951,0.782c1.127,0.266,1.969,0.666,2.531,1.202c0.557,0.542,0.833,1.219,0.833,2.033
		c0,1.071-0.397,1.947-1.198,2.625c-0.798,0.676-2.031,1.016-3.699,1.016c-1.703,0-2.961-0.36-3.772-1.076
		c-0.812-0.718-1.218-1.632-1.218-2.743L170.029,15.506L170.029,15.506z"/>
	<path fill="#FF7E00" d="M177.617,10.258V8.244h1.509V5.23h2.796v3.014h1.756v2.014h-1.756v5.713c0,0.443,0.057,0.719,0.168,0.827
		c0.113,0.11,0.457,0.166,1.033,0.166c0.085,0,0.176-0.002,0.273-0.006c0.095-0.003,0.188-0.007,0.28-0.014v2.113l-1.339,0.048
		c-1.335,0.048-2.247-0.185-2.736-0.693c-0.316-0.325-0.477-0.822-0.477-1.498v-6.657L177.617,10.258L177.617,10.258z"/>
	<path fill="#FF7E00" d="M194.104,17.635c-0.914,1.126-2.299,1.689-4.158,1.689c-1.857,0-3.241-0.563-4.154-1.689
		c-0.912-1.127-1.368-2.482-1.368-4.069c0-1.559,0.456-2.91,1.368-4.052c0.913-1.145,2.297-1.716,4.154-1.716
		c1.858,0,3.244,0.572,4.158,1.716c0.912,1.142,1.369,2.493,1.369,4.052C195.473,15.153,195.016,16.508,194.104,17.635z
		 M191.839,16.073c0.444-0.588,0.667-1.424,0.667-2.507s-0.223-1.917-0.667-2.5c-0.44-0.584-1.075-0.877-1.903-0.877
		c-0.826,0-1.461,0.293-1.908,0.877c-0.447,0.583-0.668,1.418-0.668,2.5c0,1.083,0.221,1.918,0.668,2.507
		c0.447,0.586,1.082,0.88,1.908,0.88C190.764,16.953,191.398,16.659,191.839,16.073z"/>
	<path fill="#FF7E00" d="M210.173,8.186c0.463,0.184,0.882,0.509,1.259,0.972c0.308,0.377,0.51,0.84,0.616,1.389
		c0.066,0.362,0.099,0.896,0.099,1.597l-0.02,6.814h-2.896v-6.882c0-0.412-0.069-0.748-0.199-1.014
		c-0.254-0.501-0.717-0.754-1.391-0.754c-0.781,0-1.318,0.324-1.617,0.973c-0.149,0.343-0.226,0.756-0.226,1.239v6.438h-2.85V12.52
		c0-0.642-0.063-1.106-0.198-1.398c-0.236-0.523-0.705-0.784-1.396-0.784c-0.808,0-1.351,0.261-1.627,0.784
		c-0.153,0.297-0.229,0.74-0.229,1.328v6.508h-2.867V8.166h2.748v1.576c0.353-0.561,0.681-0.961,0.992-1.198
		c0.549-0.424,1.262-0.636,2.134-0.636c0.826,0,1.493,0.182,2.002,0.545c0.407,0.337,0.723,0.77,0.932,1.3
		c0.373-0.634,0.83-1.102,1.381-1.399c0.582-0.297,1.227-0.446,1.945-0.446C209.24,7.908,209.708,8.001,210.173,8.186z"/>
	<path fill="#E12D1C" d="M229.896,5.895c0.448,0.62,0.674,1.366,0.674,2.231c0,0.893-0.226,1.61-0.678,2.152
		c-0.254,0.304-0.625,0.583-1.119,0.833c0.748,0.271,1.312,0.701,1.69,1.289c0.379,0.589,0.57,1.303,0.57,2.144
		c0,0.865-0.218,1.643-0.652,2.332c-0.274,0.455-0.618,0.836-1.034,1.15c-0.466,0.355-1.018,0.601-1.648,0.733
		c-0.639,0.133-1.326,0.198-2.066,0.198h-6.59V4.336h7.064C227.893,4.363,229.156,4.883,229.896,5.895z M221.957,6.876V10.1h3.557
		c0.635,0,1.15-0.121,1.547-0.363c0.396-0.242,0.59-0.669,0.59-1.285c0-0.681-0.26-1.13-0.782-1.349
		c-0.451-0.151-1.027-0.227-1.728-0.227H221.957z M221.957,12.52v3.897h3.549c0.635,0,1.128-0.083,1.484-0.257
		c0.643-0.316,0.961-0.924,0.961-1.825c0-0.76-0.312-1.281-0.932-1.567c-0.349-0.159-0.836-0.24-1.461-0.248H221.957z"/>
	<path fill="#E12D1C" d="M238.628,7.893c0.035,0.004,0.119,0.009,0.242,0.015v2.897c-0.177-0.021-0.337-0.035-0.476-0.041
		c-0.141-0.007-0.25-0.01-0.336-0.01c-1.142,0-1.901,0.37-2.295,1.111c-0.217,0.417-0.326,1.059-0.326,1.924v5.167h-2.847V8.146
		h2.698v1.884c0.436-0.721,0.816-1.213,1.145-1.478c0.526-0.443,1.213-0.666,2.061-0.666C238.546,7.888,238.593,7.89,238.628,7.893z
		"/>
	<path fill="#E12D1C" d="M244.402,12.382c0.526-0.068,0.902-0.149,1.133-0.249c0.406-0.172,0.607-0.44,0.607-0.805
		c0-0.442-0.156-0.748-0.47-0.916c-0.31-0.168-0.766-0.253-1.371-0.253c-0.677,0-1.155,0.164-1.438,0.497
		c-0.197,0.244-0.332,0.576-0.4,0.991h-2.73c0.064-0.945,0.328-1.724,0.8-2.331c0.753-0.952,2.038-1.429,3.866-1.429
		c1.188,0,2.244,0.235,3.168,0.705c0.925,0.469,1.384,1.356,1.384,2.659v4.959c0,0.344,0.008,0.76,0.021,1.25
		c0.021,0.371,0.074,0.622,0.17,0.754c0.09,0.134,0.229,0.242,0.414,0.327v0.417h-3.074c-0.086-0.217-0.144-0.423-0.178-0.614
		c-0.033-0.192-0.062-0.412-0.082-0.655c-0.392,0.422-0.844,0.783-1.354,1.081c-0.612,0.35-1.306,0.526-2.076,0.526
		c-0.981,0-1.797-0.278-2.437-0.836c-0.646-0.561-0.967-1.353-0.967-2.377c0-1.331,0.519-2.292,1.549-2.887
		c0.566-0.323,1.399-0.555,2.502-0.693L244.402,12.382z M246.133,13.7c-0.18,0.113-0.363,0.203-0.549,0.273
		c-0.184,0.068-0.439,0.133-0.759,0.192l-0.646,0.12c-0.6,0.105-1.035,0.235-1.299,0.386c-0.445,0.258-0.669,0.659-0.669,1.2
		c0,0.484,0.138,0.832,0.409,1.049c0.271,0.213,0.602,0.32,0.994,0.32c0.615,0,1.186-0.178,1.705-0.535
		c0.52-0.355,0.791-1.009,0.812-1.955L246.133,13.7L246.133,13.7z"/>
	<path fill="#E12D1C" d="M259.326,8.765c0.707,0.585,1.062,1.557,1.062,2.913v7.28h-2.897v-6.575c0-0.569-0.077-1.005-0.228-1.311
		c-0.275-0.554-0.802-0.832-1.576-0.832c-0.948,0-1.603,0.405-1.959,1.219c-0.185,0.429-0.275,0.979-0.275,1.647v5.852h-2.826V8.166
		h2.739v1.576c0.362-0.554,0.702-0.955,1.026-1.198c0.575-0.438,1.312-0.656,2.2-0.656C257.708,7.888,258.617,8.181,259.326,8.765z"
		/>
	<path fill="#E12D1C" d="M268.343,8.32c0.511,0.287,0.923,0.687,1.238,1.194V4.357h2.869v14.601h-2.748V17.46
		c-0.404,0.641-0.863,1.107-1.379,1.4c-0.519,0.29-1.157,0.435-1.925,0.435c-1.264,0-2.325-0.51-3.189-1.531
		s-1.295-2.335-1.295-3.934c0-1.845,0.426-3.296,1.273-4.355c0.851-1.057,1.988-1.587,3.41-1.587
		C267.25,7.888,267.833,8.031,268.343,8.32z M269.041,16.02c0.413-0.593,0.623-1.363,0.623-2.31c0-1.321-0.333-2.267-1.002-2.836
		c-0.41-0.344-0.889-0.516-1.43-0.516c-0.826,0-1.433,0.313-1.819,0.938c-0.388,0.624-0.579,1.4-0.579,2.326
		c0,1,0.195,1.797,0.588,2.395c0.396,0.6,0.99,0.899,1.791,0.899S268.622,16.617,269.041,16.02z"/>
	<path fill="#E12D1C" d="M281.659,8.364c0.753,0.339,1.374,0.872,1.868,1.601c0.44,0.642,0.729,1.387,0.857,2.233
		c0.08,0.496,0.11,1.213,0.098,2.146h-7.877c0.047,1.083,0.422,1.845,1.129,2.281c0.436,0.273,0.953,0.408,1.561,0.408
		c0.645,0,1.168-0.166,1.573-0.498c0.218-0.176,0.411-0.426,0.581-0.743h2.885c-0.078,0.642-0.428,1.292-1.049,1.955
		c-0.967,1.05-2.324,1.576-4.07,1.576c-1.438,0-2.705-0.444-3.805-1.33c-1.1-0.889-1.65-2.331-1.65-4.328
		c0-1.874,0.496-3.31,1.489-4.31c0.994-0.999,2.282-1.499,3.866-1.499C280.059,7.858,280.904,8.027,281.659,8.364z M277.429,10.807
		c-0.398,0.412-0.649,0.97-0.752,1.673h4.869c-0.054-0.75-0.303-1.319-0.756-1.708c-0.448-0.389-1.011-0.583-1.677-0.583
		C278.389,10.189,277.828,10.396,277.429,10.807z"/>
	<path fill="#E12D1C" d="M291.646,8.32c0.506,0.287,0.922,0.687,1.237,1.194V4.357h2.865v14.601h-2.748V17.46
		c-0.399,0.641-0.86,1.107-1.379,1.4c-0.515,0.29-1.157,0.435-1.922,0.435c-1.267,0-2.327-0.51-3.189-1.531
		s-1.295-2.335-1.295-3.934c0-1.845,0.427-3.296,1.275-4.355c0.85-1.057,1.981-1.587,3.403-1.587
		C290.554,7.888,291.135,8.031,291.646,8.32z M292.337,16.02c0.416-0.593,0.627-1.363,0.627-2.31c0-1.321-0.337-2.267-1.003-2.836
		c-0.409-0.344-0.886-0.516-1.427-0.516c-0.828,0-1.437,0.313-1.82,0.938c-0.39,0.624-0.584,1.4-0.584,2.326
		c0,1,0.197,1.797,0.595,2.395c0.391,0.6,0.989,0.899,1.791,0.899C291.312,16.915,291.922,16.617,292.337,16.02z"/>
	<path fill="#FF7E00" d="M105.903,23.948c1.178-1.206,2.676-1.808,4.494-1.808c2.435,0,4.214,0.809,5.339,2.422
		c0.622,0.903,0.954,1.813,1,2.727h-3.054c-0.194-0.701-0.444-1.229-0.748-1.586c-0.545-0.635-1.351-0.953-2.419-0.953
		c-1.09,0-1.947,0.449-2.576,1.344c-0.628,0.898-0.942,2.166-0.942,3.807c0,1.638,0.333,2.865,0.995,3.685
		c0.663,0.815,1.505,1.224,2.527,1.224c1.047,0,1.847-0.35,2.397-1.051c0.303-0.378,0.556-0.941,0.758-1.695h3.034
		c-0.262,1.592-0.931,2.891-2.007,3.889c-1.076,0.998-2.455,1.498-4.135,1.498c-2.081,0-3.716-0.676-4.907-2.024
		c-1.189-1.354-1.786-3.214-1.786-5.573C103.872,27.295,104.549,25.328,105.903,23.948z"/>
	<path fill="#FF7E00" d="M127.559,35.718c-0.913,1.126-2.297,1.688-4.156,1.688c-1.859,0-3.242-0.562-4.156-1.688
		c-0.913-1.128-1.369-2.481-1.369-4.067c0-1.562,0.457-2.911,1.369-4.056c0.914-1.142,2.298-1.714,4.156-1.714
		s3.243,0.572,4.156,1.714c0.913,1.145,1.37,2.494,1.37,4.056C128.928,33.236,128.471,34.59,127.559,35.718z M125.297,34.156
		c0.443-0.59,0.665-1.424,0.665-2.508s-0.222-1.914-0.665-2.5c-0.443-0.584-1.078-0.877-1.905-0.877
		c-0.827,0-1.461,0.293-1.909,0.877c-0.445,0.586-0.669,1.416-0.669,2.5s0.224,1.918,0.669,2.508
		c0.448,0.584,1.083,0.881,1.909,0.881C124.219,35.037,124.854,34.74,125.297,34.156z"/>
	<path fill="#FF7E00" d="M138.857,26.85c0.709,0.584,1.062,1.556,1.062,2.91v7.279h-2.896v-6.574c0-0.568-0.075-1.004-0.227-1.312
		c-0.275-0.553-0.801-0.83-1.575-0.83c-0.952,0-1.605,0.404-1.961,1.22c-0.183,0.431-0.274,0.979-0.274,1.646v5.853h-2.828V26.248
		h2.738v1.576c0.362-0.555,0.704-0.954,1.027-1.198c0.579-0.438,1.313-0.656,2.202-0.656C137.24,25.97,138.15,26.264,138.857,26.85z
		"/>
	<path fill="#FF7E00" d="M141.032,28.341v-2.015h1.508v-3.014h2.796v3.014h1.756v2.015h-1.756v5.714
		c0,0.443,0.057,0.717,0.169,0.828c0.113,0.111,0.456,0.164,1.031,0.164c0.086,0,0.177-0.002,0.274-0.006
		c0.095-0.004,0.189-0.008,0.281-0.014v2.113l-1.339,0.047c-1.335,0.047-2.248-0.186-2.738-0.693
		c-0.317-0.324-0.475-0.822-0.475-1.498v-6.655H141.032z"/>
	<path fill="#FF7E00" d="M156.359,26.447c0.752,0.338,1.375,0.873,1.867,1.6c0.443,0.643,0.729,1.389,0.861,2.234
		c0.077,0.496,0.107,1.212,0.094,2.146h-7.875c0.043,1.084,0.42,1.845,1.131,2.28c0.432,0.273,0.951,0.409,1.558,0.409
		c0.646,0,1.168-0.166,1.571-0.499c0.218-0.176,0.414-0.426,0.582-0.741h2.886c-0.075,0.64-0.427,1.291-1.05,1.953
		c-0.965,1.051-2.321,1.576-4.064,1.576c-1.439,0-2.709-0.443-3.809-1.328c-1.101-0.888-1.649-2.331-1.649-4.329
		c0-1.873,0.496-3.311,1.489-4.311c0.992-0.998,2.281-1.498,3.865-1.498C154.756,25.941,155.604,26.109,156.359,26.447z
		 M152.128,28.891c-0.399,0.41-0.649,0.969-0.752,1.672h4.87c-0.051-0.752-0.303-1.318-0.752-1.707
		c-0.451-0.391-1.01-0.584-1.678-0.584C153.091,28.271,152.527,28.477,152.128,28.891z"/>
	<path fill="#FF7E00" d="M168.922,26.85c0.709,0.584,1.062,1.556,1.062,2.91v7.279h-2.897v-6.574c0-0.568-0.073-1.004-0.226-1.312
		c-0.276-0.553-0.801-0.83-1.574-0.83c-0.953,0-1.604,0.404-1.961,1.22c-0.184,0.431-0.276,0.979-0.276,1.646v5.853h-2.825V26.248
		h2.738v1.576c0.361-0.555,0.703-0.954,1.026-1.198c0.579-0.438,1.312-0.656,2.202-0.656
		C167.305,25.97,168.215,26.264,168.922,26.85z"/>
	<path fill="#FF7E00" d="M171.098,28.341v-2.015h1.506v-3.014h2.799v3.014h1.756v2.015h-1.756v5.714
		c0,0.443,0.055,0.717,0.166,0.828c0.115,0.111,0.457,0.164,1.031,0.164c0.088,0,0.18-0.002,0.274-0.006
		c0.094-0.004,0.188-0.008,0.283-0.014v2.113l-1.341,0.047c-1.336,0.047-2.248-0.186-2.735-0.693
		c-0.317-0.324-0.479-0.822-0.479-1.498v-6.655H171.098z"/>
	<path fill="#FF7E00" d="M188.273,23.948c1.178-1.206,2.675-1.808,4.494-1.808c2.434,0,4.213,0.809,5.338,2.422
		c0.621,0.903,0.955,1.813,1.002,2.727h-3.056c-0.196-0.701-0.444-1.229-0.747-1.586c-0.548-0.635-1.353-0.953-2.421-0.953
		c-1.09,0-1.948,0.449-2.575,1.344c-0.629,0.898-0.943,2.166-0.943,3.807c0,1.638,0.333,2.865,0.994,3.685
		c0.664,0.815,1.508,1.224,2.527,1.224c1.049,0,1.85-0.35,2.397-1.051c0.303-0.378,0.556-0.941,0.757-1.695h3.034
		c-0.263,1.592-0.933,2.891-2.007,3.889c-1.075,0.998-2.454,1.498-4.137,1.498c-2.078,0-3.717-0.676-4.906-2.024
		c-1.188-1.354-1.785-3.214-1.785-5.573C186.241,27.295,186.919,25.328,188.273,23.948z"/>
	<path fill="#FF7E00" d="M210.335,35.718c-0.914,1.126-2.297,1.688-4.158,1.688c-1.856,0-3.241-0.562-4.155-1.688
		c-0.912-1.128-1.369-2.481-1.369-4.067c0-1.562,0.457-2.911,1.369-4.056c0.914-1.142,2.299-1.714,4.155-1.714
		c1.861,0,3.244,0.572,4.158,1.714c0.912,1.145,1.369,2.494,1.369,4.056C211.705,33.236,211.248,34.59,210.335,35.718z
		 M208.074,34.156c0.441-0.59,0.664-1.424,0.664-2.508s-0.223-1.914-0.664-2.5c-0.443-0.584-1.079-0.877-1.906-0.877
		c-0.826,0-1.461,0.293-1.908,0.877c-0.447,0.586-0.668,1.416-0.668,2.5s0.221,1.918,0.668,2.508
		c0.447,0.584,1.082,0.881,1.908,0.881C206.995,35.037,207.63,34.74,208.074,34.156z"/>
	<path fill="#FF7E00" d="M226.812,26.268c0.463,0.187,0.881,0.51,1.256,0.973c0.309,0.379,0.51,0.84,0.619,1.39
		c0.063,0.363,0.098,0.896,0.098,1.599l-0.02,6.812h-2.896v-6.883c0-0.41-0.066-0.748-0.199-1.015c-0.251-0.5-0.716-0.75-1.389-0.75
		c-0.78,0-1.32,0.32-1.617,0.971c-0.15,0.344-0.225,0.757-0.225,1.238v6.438h-2.853v-6.438c0-0.641-0.065-1.106-0.194-1.396
		c-0.238-0.524-0.705-0.787-1.398-0.787c-0.807,0-1.35,0.263-1.628,0.787c-0.153,0.298-0.229,0.737-0.229,1.328v6.506h-2.866V26.248
		h2.748v1.576c0.351-0.561,0.68-0.963,0.989-1.198c0.55-0.424,1.263-0.635,2.134-0.635c0.827,0,1.493,0.18,2.006,0.545
		c0.408,0.335,0.718,0.771,0.932,1.3c0.372-0.637,0.828-1.102,1.379-1.4c0.582-0.297,1.227-0.443,1.943-0.443
		C225.88,25.991,226.348,26.082,226.812,26.268z"/>
	<path fill="#FF7E00" d="M239.255,27.389c0.884,0.934,1.324,2.303,1.324,4.106c0,1.903-0.431,3.356-1.293,4.354
		c-0.859,0.998-1.974,1.498-3.33,1.498c-0.863,0-1.583-0.214-2.154-0.646c-0.313-0.24-0.618-0.586-0.92-1.043v5.635h-2.796V26.229
		h2.709v1.597c0.303-0.47,0.63-0.841,0.977-1.11c0.631-0.48,1.385-0.723,2.256-0.723C237.298,25.991,238.376,26.455,239.255,27.389z
		 M237.085,29.422c-0.383-0.643-1.006-0.961-1.866-0.961c-1.033,0-1.748,0.484-2.134,1.458c-0.203,0.517-0.301,1.169-0.301,1.964
		c0,1.256,0.337,2.141,1.01,2.648c0.401,0.297,0.877,0.447,1.422,0.447c0.798,0,1.402-0.306,1.82-0.916
		c0.418-0.607,0.627-1.418,0.627-2.429C237.664,30.8,237.473,30.064,237.085,29.422z"/>
	<path fill="#FF7E00" d="M246.855,30.465c0.526-0.068,0.901-0.148,1.131-0.248c0.406-0.174,0.608-0.441,0.608-0.806
		c0-0.442-0.155-0.747-0.469-0.917c-0.312-0.168-0.771-0.252-1.373-0.252c-0.676,0-1.153,0.164-1.438,0.496
		c-0.197,0.244-0.334,0.576-0.4,0.992h-2.727c0.059-0.945,0.323-1.726,0.799-2.334c0.748-0.951,2.035-1.428,3.863-1.428
		c1.188,0,2.243,0.235,3.17,0.704c0.92,0.472,1.383,1.357,1.383,2.659v4.96c0,0.343,0.005,0.76,0.02,1.25
		c0.018,0.37,0.076,0.621,0.169,0.754c0.091,0.131,0.233,0.242,0.413,0.326v0.416h-3.07c-0.09-0.218-0.146-0.422-0.178-0.613
		c-0.033-0.192-0.061-0.409-0.08-0.655c-0.393,0.424-0.847,0.785-1.359,1.082c-0.612,0.35-1.301,0.525-2.073,0.525
		c-0.985,0-1.798-0.277-2.44-0.837c-0.64-0.562-0.962-1.353-0.962-2.377c0-1.332,0.515-2.289,1.548-2.89
		c0.567-0.321,1.397-0.553,2.502-0.692L246.855,30.465z M248.583,31.783c-0.181,0.113-0.363,0.201-0.545,0.271
		c-0.188,0.069-0.438,0.135-0.763,0.192l-0.645,0.121c-0.601,0.104-1.035,0.233-1.297,0.385c-0.445,0.261-0.67,0.66-0.67,1.201
		c0,0.481,0.137,0.831,0.408,1.048c0.271,0.214,0.604,0.32,0.994,0.32c0.617,0,1.186-0.178,1.705-0.535
		c0.521-0.355,0.791-1.01,0.811-1.956L248.583,31.783L248.583,31.783z"/>
	<path fill="#FF7E00" d="M262.591,26.85c0.705,0.584,1.062,1.556,1.062,2.91v7.279h-2.896v-6.574c0-0.568-0.074-1.004-0.227-1.312
		c-0.273-0.553-0.801-0.83-1.576-0.83c-0.949,0-1.604,0.404-1.959,1.22c-0.186,0.431-0.273,0.979-0.273,1.646v5.853h-2.828V26.248
		h2.738v1.576c0.363-0.555,0.701-0.954,1.025-1.198c0.578-0.438,1.314-0.656,2.203-0.656
		C260.973,25.97,261.882,26.264,262.591,26.85z"/>
	<path fill="#FF7E00" d="M265.895,39.111l0.356,0.021c0.276,0.014,0.543,0.004,0.794-0.029c0.251-0.031,0.462-0.108,0.634-0.229
		c0.166-0.113,0.32-0.348,0.46-0.704c0.145-0.358,0.204-0.575,0.186-0.653l-3.971-11.289h3.145l2.357,7.975l2.231-7.975h3.006
		l-3.704,10.633c-0.72,2.052-1.283,3.322-1.701,3.814s-1.248,0.738-2.502,0.738c-0.252,0-0.453,0-0.605-0.004
		s-0.382-0.016-0.686-0.035V39.111L265.895,39.111z"/>
</g>
</svg>
